<mxfile host="Electron" modified="2020-08-05T08:56:11.181Z" agent="5.0 (Windows NT 10.0; Win64; x64) AppleWebKit/537.36 (KHTML, like Gecko) draw.io/13.5.7 Chrome/83.0.4103.122 Electron/9.1.2 Safari/537.36" etag="UtuOXhW7HbaBdXTWChv3" compressed="false" version="13.5.7" type="device" pages="3">
  <diagram id="GuPwiSTdSiGQWvdwZdfz" name="Page-2">
    <mxGraphModel dx="1362" dy="718" grid="1" gridSize="10" guides="1" tooltips="1" connect="1" arrows="0" fold="1" page="1" pageScale="1" pageWidth="1654" pageHeight="1169" math="0" shadow="0">
      <root>
        <mxCell id="2yhB7PdMfcXvb_MeoOgO-0" />
        <mxCell id="2yhB7PdMfcXvb_MeoOgO-1" parent="2yhB7PdMfcXvb_MeoOgO-0" />
        <mxCell id="2yhB7PdMfcXvb_MeoOgO-2" value="Instr 1" style="rounded=1;whiteSpace=wrap;html=1;fontSize=20;fillColor=#dae8fc;strokeColor=#6c8ebf;" vertex="1" parent="2yhB7PdMfcXvb_MeoOgO-1">
          <mxGeometry x="200" y="120" width="160" height="40" as="geometry" />
        </mxCell>
        <mxCell id="2yhB7PdMfcXvb_MeoOgO-3" value="Val 1" style="ellipse;whiteSpace=wrap;html=1;fontSize=20;fillColor=#f5f5f5;strokeColor=#666666;fontColor=#333333;" vertex="1" parent="2yhB7PdMfcXvb_MeoOgO-1">
          <mxGeometry x="240" y="180" width="80" height="40" as="geometry" />
        </mxCell>
        <mxCell id="2yhB7PdMfcXvb_MeoOgO-4" value="Instr 2" style="rounded=1;whiteSpace=wrap;html=1;fontSize=20;fillColor=#dae8fc;strokeColor=#6c8ebf;" vertex="1" parent="2yhB7PdMfcXvb_MeoOgO-1">
          <mxGeometry x="200" y="280" width="160" height="40" as="geometry" />
        </mxCell>
        <mxCell id="2yhB7PdMfcXvb_MeoOgO-5" value="Instr 3" style="rounded=1;whiteSpace=wrap;html=1;fontSize=20;fillColor=#dae8fc;strokeColor=#6c8ebf;" vertex="1" parent="2yhB7PdMfcXvb_MeoOgO-1">
          <mxGeometry x="200" y="440" width="160" height="40" as="geometry" />
        </mxCell>
        <mxCell id="2yhB7PdMfcXvb_MeoOgO-6" value="Instr 4" style="rounded=1;whiteSpace=wrap;html=1;fontSize=20;fillColor=#dae8fc;strokeColor=#6c8ebf;" vertex="1" parent="2yhB7PdMfcXvb_MeoOgO-1">
          <mxGeometry x="200" y="600" width="160" height="40" as="geometry" />
        </mxCell>
        <mxCell id="2yhB7PdMfcXvb_MeoOgO-7" value="Instr 5" style="rounded=1;whiteSpace=wrap;html=1;fontSize=20;fillColor=#dae8fc;strokeColor=#6c8ebf;" vertex="1" parent="2yhB7PdMfcXvb_MeoOgO-1">
          <mxGeometry x="200" y="720" width="160" height="40" as="geometry" />
        </mxCell>
        <mxCell id="2yhB7PdMfcXvb_MeoOgO-8" value="Val 2" style="ellipse;whiteSpace=wrap;html=1;fontSize=20;fillColor=#f5f5f5;strokeColor=#666666;fontColor=#333333;" vertex="1" parent="2yhB7PdMfcXvb_MeoOgO-1">
          <mxGeometry x="240" y="340" width="80" height="40" as="geometry" />
        </mxCell>
        <mxCell id="2yhB7PdMfcXvb_MeoOgO-9" value="Val 3" style="ellipse;whiteSpace=wrap;html=1;fontSize=20;fillColor=#f5f5f5;strokeColor=#666666;fontColor=#333333;" vertex="1" parent="2yhB7PdMfcXvb_MeoOgO-1">
          <mxGeometry x="240" y="500" width="80" height="40" as="geometry" />
        </mxCell>
        <mxCell id="2yhB7PdMfcXvb_MeoOgO-10" value="" style="endArrow=blockThin;html=1;fontSize=20;edgeStyle=orthogonalEdgeStyle;elbow=vertical;endFill=1;" edge="1" parent="2yhB7PdMfcXvb_MeoOgO-1" source="2yhB7PdMfcXvb_MeoOgO-2" target="2yhB7PdMfcXvb_MeoOgO-3">
          <mxGeometry width="50" height="50" relative="1" as="geometry">
            <mxPoint x="170" y="160" as="sourcePoint" />
            <mxPoint x="210" y="410" as="targetPoint" />
            <Array as="points" />
          </mxGeometry>
        </mxCell>
        <mxCell id="2yhB7PdMfcXvb_MeoOgO-12" value="" style="endArrow=blockThin;html=1;fontSize=20;edgeStyle=orthogonalEdgeStyle;elbow=vertical;endFill=1;" edge="1" parent="2yhB7PdMfcXvb_MeoOgO-1" source="2yhB7PdMfcXvb_MeoOgO-3" target="2yhB7PdMfcXvb_MeoOgO-6">
          <mxGeometry width="50" height="50" relative="1" as="geometry">
            <mxPoint x="50" y="330" as="sourcePoint" />
            <mxPoint x="-130" y="210" as="targetPoint" />
            <Array as="points">
              <mxPoint x="280" y="260" />
              <mxPoint x="160" y="260" />
              <mxPoint x="160" y="570" />
              <mxPoint x="260" y="570" />
            </Array>
          </mxGeometry>
        </mxCell>
        <mxCell id="2yhB7PdMfcXvb_MeoOgO-13" value="" style="endArrow=blockThin;html=1;fontSize=20;edgeStyle=orthogonalEdgeStyle;elbow=vertical;endFill=1;" edge="1" parent="2yhB7PdMfcXvb_MeoOgO-1" source="2yhB7PdMfcXvb_MeoOgO-5" target="2yhB7PdMfcXvb_MeoOgO-9">
          <mxGeometry width="50" height="50" relative="1" as="geometry">
            <mxPoint x="310" y="510" as="sourcePoint" />
            <mxPoint x="-120" y="220" as="targetPoint" />
            <Array as="points">
              <mxPoint x="280" y="500" />
              <mxPoint x="280" y="500" />
            </Array>
          </mxGeometry>
        </mxCell>
        <mxCell id="2yhB7PdMfcXvb_MeoOgO-14" value="" style="endArrow=blockThin;html=1;fontSize=20;entryX=0.5;entryY=0;entryDx=0;entryDy=0;edgeStyle=orthogonalEdgeStyle;elbow=vertical;endFill=1;" edge="1" parent="2yhB7PdMfcXvb_MeoOgO-1" source="2yhB7PdMfcXvb_MeoOgO-8" target="2yhB7PdMfcXvb_MeoOgO-5">
          <mxGeometry width="50" height="50" relative="1" as="geometry">
            <mxPoint x="10" y="450" as="sourcePoint" />
            <mxPoint x="140" y="510" as="targetPoint" />
            <Array as="points" />
          </mxGeometry>
        </mxCell>
        <mxCell id="2yhB7PdMfcXvb_MeoOgO-15" value="" style="endArrow=blockThin;html=1;fontSize=20;edgeStyle=orthogonalEdgeStyle;elbow=vertical;rounded=1;strokeWidth=1;arcSize=20;endFill=1;" edge="1" parent="2yhB7PdMfcXvb_MeoOgO-1" source="2yhB7PdMfcXvb_MeoOgO-3" target="2yhB7PdMfcXvb_MeoOgO-5">
          <mxGeometry width="50" height="50" relative="1" as="geometry">
            <mxPoint x="-150" y="290" as="sourcePoint" />
            <mxPoint x="470" y="440" as="targetPoint" />
            <Array as="points">
              <mxPoint x="280" y="260" />
              <mxPoint x="160" y="260" />
              <mxPoint x="160" y="410" />
              <mxPoint x="260" y="410" />
            </Array>
          </mxGeometry>
        </mxCell>
        <mxCell id="2yhB7PdMfcXvb_MeoOgO-16" value="" style="endArrow=blockThin;html=1;fontSize=20;edgeStyle=orthogonalEdgeStyle;elbow=vertical;entryX=0.5;entryY=0;entryDx=0;entryDy=0;endFill=1;" edge="1" parent="2yhB7PdMfcXvb_MeoOgO-1" source="2yhB7PdMfcXvb_MeoOgO-4" target="2yhB7PdMfcXvb_MeoOgO-8">
          <mxGeometry width="50" height="50" relative="1" as="geometry">
            <mxPoint x="290" y="340" as="sourcePoint" />
            <mxPoint x="-50" y="420" as="targetPoint" />
            <Array as="points">
              <mxPoint x="280" y="330" />
              <mxPoint x="280" y="330" />
            </Array>
          </mxGeometry>
        </mxCell>
        <mxCell id="2yhB7PdMfcXvb_MeoOgO-18" value="" style="endArrow=blockThin;html=1;fontSize=20;entryX=0.5;entryY=0;entryDx=0;entryDy=0;edgeStyle=orthogonalEdgeStyle;elbow=vertical;endFill=1;" edge="1" parent="2yhB7PdMfcXvb_MeoOgO-1" source="2yhB7PdMfcXvb_MeoOgO-9" target="2yhB7PdMfcXvb_MeoOgO-6">
          <mxGeometry width="50" height="50" relative="1" as="geometry">
            <mxPoint x="40" y="580" as="sourcePoint" />
            <mxPoint x="-120" y="260" as="targetPoint" />
            <Array as="points" />
          </mxGeometry>
        </mxCell>
        <mxCell id="jWrQEUrVry93C4lxfcs1-0" value="" style="endArrow=blockThin;html=1;strokeWidth=1;fontSize=20;dashed=1;endFill=1;edgeStyle=orthogonalEdgeStyle;" edge="1" parent="2yhB7PdMfcXvb_MeoOgO-1" source="2yhB7PdMfcXvb_MeoOgO-2" target="2yhB7PdMfcXvb_MeoOgO-4">
          <mxGeometry width="50" height="50" relative="1" as="geometry">
            <mxPoint x="-60" y="340" as="sourcePoint" />
            <mxPoint x="-10" y="290" as="targetPoint" />
            <Array as="points">
              <mxPoint x="340" y="260" />
              <mxPoint x="340" y="260" />
            </Array>
          </mxGeometry>
        </mxCell>
        <mxCell id="jWrQEUrVry93C4lxfcs1-1" value="" style="endArrow=blockThin;html=1;strokeWidth=1;fontSize=20;dashed=1;endFill=1;edgeStyle=orthogonalEdgeStyle;" edge="1" parent="2yhB7PdMfcXvb_MeoOgO-1" source="2yhB7PdMfcXvb_MeoOgO-5" target="2yhB7PdMfcXvb_MeoOgO-6">
          <mxGeometry width="50" height="50" relative="1" as="geometry">
            <mxPoint x="429.9985714285715" y="230" as="sourcePoint" />
            <mxPoint x="429.9985714285715" y="350" as="targetPoint" />
            <Array as="points">
              <mxPoint x="340" y="500" />
              <mxPoint x="340" y="500" />
            </Array>
          </mxGeometry>
        </mxCell>
        <mxCell id="jWrQEUrVry93C4lxfcs1-3" value="" style="endArrow=blockThin;html=1;strokeWidth=1;fontSize=20;dashed=1;endFill=1;edgeStyle=orthogonalEdgeStyle;" edge="1" parent="2yhB7PdMfcXvb_MeoOgO-1" source="2yhB7PdMfcXvb_MeoOgO-4" target="2yhB7PdMfcXvb_MeoOgO-5">
          <mxGeometry width="50" height="50" relative="1" as="geometry">
            <mxPoint x="370.02857142857147" y="190" as="sourcePoint" />
            <mxPoint x="370.02857142857147" y="310" as="targetPoint" />
            <Array as="points">
              <mxPoint x="340" y="350" />
              <mxPoint x="340" y="350" />
            </Array>
          </mxGeometry>
        </mxCell>
        <mxCell id="jWrQEUrVry93C4lxfcs1-4" value="Instr 1" style="rounded=1;whiteSpace=wrap;html=1;fontSize=20;fillColor=#dae8fc;strokeColor=#6c8ebf;" vertex="1" parent="2yhB7PdMfcXvb_MeoOgO-1">
          <mxGeometry x="680" y="80" width="160" height="40" as="geometry" />
        </mxCell>
        <mxCell id="jWrQEUrVry93C4lxfcs1-5" value="Val 1" style="ellipse;whiteSpace=wrap;html=1;fontSize=20;fillColor=#f5f5f5;strokeColor=#666666;fontColor=#333333;" vertex="1" parent="2yhB7PdMfcXvb_MeoOgO-1">
          <mxGeometry x="720" y="140" width="80" height="40" as="geometry" />
        </mxCell>
        <mxCell id="jWrQEUrVry93C4lxfcs1-6" value="Instr 2" style="rounded=1;whiteSpace=wrap;html=1;fontSize=20;fillColor=#dae8fc;strokeColor=#6c8ebf;" vertex="1" parent="2yhB7PdMfcXvb_MeoOgO-1">
          <mxGeometry x="680" y="240" width="160" height="40" as="geometry" />
        </mxCell>
        <mxCell id="jWrQEUrVry93C4lxfcs1-7" value="Instr 3" style="rounded=1;whiteSpace=wrap;html=1;fontSize=20;fillColor=#dae8fc;strokeColor=#6c8ebf;" vertex="1" parent="2yhB7PdMfcXvb_MeoOgO-1">
          <mxGeometry x="680" y="400" width="160" height="40" as="geometry" />
        </mxCell>
        <mxCell id="jWrQEUrVry93C4lxfcs1-8" value="Instr 4" style="rounded=1;whiteSpace=wrap;html=1;fontSize=20;fillColor=#dae8fc;strokeColor=#6c8ebf;" vertex="1" parent="2yhB7PdMfcXvb_MeoOgO-1">
          <mxGeometry x="680" y="560" width="160" height="40" as="geometry" />
        </mxCell>
        <mxCell id="jWrQEUrVry93C4lxfcs1-9" value="Val 2" style="ellipse;whiteSpace=wrap;html=1;fontSize=20;fillColor=#f5f5f5;strokeColor=#666666;fontColor=#333333;" vertex="1" parent="2yhB7PdMfcXvb_MeoOgO-1">
          <mxGeometry x="720" y="300" width="80" height="40" as="geometry" />
        </mxCell>
        <mxCell id="jWrQEUrVry93C4lxfcs1-10" value="Val 3" style="ellipse;whiteSpace=wrap;html=1;fontSize=20;fillColor=#f5f5f5;strokeColor=#666666;fontColor=#333333;" vertex="1" parent="2yhB7PdMfcXvb_MeoOgO-1">
          <mxGeometry x="720" y="460" width="80" height="40" as="geometry" />
        </mxCell>
        <mxCell id="jWrQEUrVry93C4lxfcs1-11" value="" style="endArrow=blockThin;html=1;fontSize=20;edgeStyle=orthogonalEdgeStyle;elbow=vertical;endFill=1;entryX=0.5;entryY=0;entryDx=0;entryDy=0;" edge="1" parent="2yhB7PdMfcXvb_MeoOgO-1" source="jWrQEUrVry93C4lxfcs1-4" target="jWrQEUrVry93C4lxfcs1-5">
          <mxGeometry width="50" height="50" relative="1" as="geometry">
            <mxPoint x="610" y="160" as="sourcePoint" />
            <mxPoint x="620" y="120" as="targetPoint" />
          </mxGeometry>
        </mxCell>
        <mxCell id="jWrQEUrVry93C4lxfcs1-12" value="" style="endArrow=blockThin;html=1;fontSize=20;edgeStyle=orthogonalEdgeStyle;elbow=vertical;endFill=1;exitX=0.5;exitY=1;exitDx=0;exitDy=0;" edge="1" parent="2yhB7PdMfcXvb_MeoOgO-1" source="jWrQEUrVry93C4lxfcs1-5" target="jWrQEUrVry93C4lxfcs1-8">
          <mxGeometry width="50" height="50" relative="1" as="geometry">
            <mxPoint x="490" y="290" as="sourcePoint" />
            <mxPoint x="310" y="170" as="targetPoint" />
            <Array as="points">
              <mxPoint x="760" y="200" />
              <mxPoint x="560" y="200" />
              <mxPoint x="560" y="540" />
              <mxPoint x="700" y="540" />
            </Array>
          </mxGeometry>
        </mxCell>
        <mxCell id="jWrQEUrVry93C4lxfcs1-13" value="" style="endArrow=blockThin;html=1;fontSize=20;edgeStyle=orthogonalEdgeStyle;elbow=vertical;endFill=1;" edge="1" parent="2yhB7PdMfcXvb_MeoOgO-1" source="jWrQEUrVry93C4lxfcs1-7" target="jWrQEUrVry93C4lxfcs1-10">
          <mxGeometry width="50" height="50" relative="1" as="geometry">
            <mxPoint x="790" y="470" as="sourcePoint" />
            <mxPoint x="360" y="180" as="targetPoint" />
            <Array as="points">
              <mxPoint x="760" y="460" />
              <mxPoint x="760" y="460" />
            </Array>
          </mxGeometry>
        </mxCell>
        <mxCell id="jWrQEUrVry93C4lxfcs1-14" value="" style="endArrow=blockThin;html=1;fontSize=20;entryX=0.5;entryY=0;entryDx=0;entryDy=0;edgeStyle=orthogonalEdgeStyle;elbow=vertical;endFill=1;" edge="1" parent="2yhB7PdMfcXvb_MeoOgO-1" source="jWrQEUrVry93C4lxfcs1-9" target="jWrQEUrVry93C4lxfcs1-7">
          <mxGeometry width="50" height="50" relative="1" as="geometry">
            <mxPoint x="490" y="410" as="sourcePoint" />
            <mxPoint x="620" y="470" as="targetPoint" />
            <Array as="points" />
          </mxGeometry>
        </mxCell>
        <mxCell id="jWrQEUrVry93C4lxfcs1-15" value="" style="endArrow=blockThin;html=1;fontSize=20;edgeStyle=orthogonalEdgeStyle;elbow=vertical;rounded=1;strokeWidth=1;arcSize=20;endFill=1;exitX=0.5;exitY=1;exitDx=0;exitDy=0;" edge="1" parent="2yhB7PdMfcXvb_MeoOgO-1" source="jWrQEUrVry93C4lxfcs1-5" target="jWrQEUrVry93C4lxfcs1-7">
          <mxGeometry width="50" height="50" relative="1" as="geometry">
            <mxPoint x="290" y="250" as="sourcePoint" />
            <mxPoint x="910" y="400" as="targetPoint" />
            <Array as="points">
              <mxPoint x="760" y="200" />
              <mxPoint x="560" y="200" />
              <mxPoint x="560" y="380" />
              <mxPoint x="700" y="380" />
            </Array>
          </mxGeometry>
        </mxCell>
        <mxCell id="jWrQEUrVry93C4lxfcs1-16" value="" style="endArrow=blockThin;html=1;fontSize=20;edgeStyle=orthogonalEdgeStyle;elbow=vertical;entryX=0.5;entryY=0;entryDx=0;entryDy=0;endFill=1;" edge="1" parent="2yhB7PdMfcXvb_MeoOgO-1" source="jWrQEUrVry93C4lxfcs1-6" target="jWrQEUrVry93C4lxfcs1-9">
          <mxGeometry width="50" height="50" relative="1" as="geometry">
            <mxPoint x="770" y="300" as="sourcePoint" />
            <mxPoint x="430" y="380" as="targetPoint" />
            <Array as="points">
              <mxPoint x="760" y="290" />
              <mxPoint x="760" y="290" />
            </Array>
          </mxGeometry>
        </mxCell>
        <mxCell id="jWrQEUrVry93C4lxfcs1-17" value="" style="endArrow=blockThin;html=1;fontSize=20;entryX=0.5;entryY=0;entryDx=0;entryDy=0;edgeStyle=orthogonalEdgeStyle;elbow=vertical;endFill=1;" edge="1" parent="2yhB7PdMfcXvb_MeoOgO-1" source="jWrQEUrVry93C4lxfcs1-10" target="jWrQEUrVry93C4lxfcs1-8">
          <mxGeometry width="50" height="50" relative="1" as="geometry">
            <mxPoint x="520" y="540" as="sourcePoint" />
            <mxPoint x="360" y="220" as="targetPoint" />
            <Array as="points" />
          </mxGeometry>
        </mxCell>
        <mxCell id="jWrQEUrVry93C4lxfcs1-18" value="" style="endArrow=blockThin;html=1;strokeWidth=1;fontSize=20;dashed=1;endFill=1;edgeStyle=orthogonalEdgeStyle;fillColor=#f5f5f5;exitX=1;exitY=1;exitDx=0;exitDy=0;entryX=1;entryY=0;entryDx=0;entryDy=0;strokeColor=#808080;" edge="1" parent="2yhB7PdMfcXvb_MeoOgO-1" source="jWrQEUrVry93C4lxfcs1-4" target="jWrQEUrVry93C4lxfcs1-6">
          <mxGeometry width="50" height="50" relative="1" as="geometry">
            <mxPoint x="420" y="340" as="sourcePoint" />
            <mxPoint x="470" y="290" as="targetPoint" />
            <Array as="points" />
          </mxGeometry>
        </mxCell>
        <mxCell id="jWrQEUrVry93C4lxfcs1-19" value="" style="endArrow=blockThin;html=1;strokeWidth=1;fontSize=20;dashed=1;endFill=1;edgeStyle=orthogonalEdgeStyle;fillColor=#f5f5f5;entryX=1;entryY=0;entryDx=0;entryDy=0;exitX=1;exitY=1;exitDx=0;exitDy=0;strokeColor=#808080;" edge="1" parent="2yhB7PdMfcXvb_MeoOgO-1" source="jWrQEUrVry93C4lxfcs1-7" target="jWrQEUrVry93C4lxfcs1-8">
          <mxGeometry width="50" height="50" relative="1" as="geometry">
            <mxPoint x="909.9985714285715" y="190" as="sourcePoint" />
            <mxPoint x="909.9985714285715" y="310" as="targetPoint" />
          </mxGeometry>
        </mxCell>
        <mxCell id="jWrQEUrVry93C4lxfcs1-20" value="" style="endArrow=blockThin;html=1;strokeWidth=1;fontSize=20;dashed=1;endFill=1;edgeStyle=orthogonalEdgeStyle;fillColor=#f5f5f5;exitX=1;exitY=1;exitDx=0;exitDy=0;entryX=1;entryY=0;entryDx=0;entryDy=0;strokeColor=#808080;" edge="1" parent="2yhB7PdMfcXvb_MeoOgO-1" source="jWrQEUrVry93C4lxfcs1-6" target="jWrQEUrVry93C4lxfcs1-7">
          <mxGeometry width="50" height="50" relative="1" as="geometry">
            <mxPoint x="840" y="300" as="sourcePoint" />
            <mxPoint x="860" y="390" as="targetPoint" />
            <Array as="points" />
          </mxGeometry>
        </mxCell>
        <mxCell id="wXUWzmxFj98pGcCcZ9N6-0" value="return" style="rounded=0;whiteSpace=wrap;html=1;fontFamily=Helvetica;fontSize=20;fontColor=#000000;align=center;strokeColor=#9673a6;fillColor=#e1d5e7;" vertex="1" parent="2yhB7PdMfcXvb_MeoOgO-1">
          <mxGeometry x="520" y="760" width="160" height="40" as="geometry" />
        </mxCell>
        <mxCell id="wXUWzmxFj98pGcCcZ9N6-2" value="" style="endArrow=blockThin;html=1;fontSize=20;edgeStyle=orthogonalEdgeStyle;elbow=vertical;endFill=1;entryX=0.25;entryY=0;entryDx=0;entryDy=0;exitX=0.5;exitY=1;exitDx=0;exitDy=0;" edge="1" parent="2yhB7PdMfcXvb_MeoOgO-1" source="jWrQEUrVry93C4lxfcs1-5" target="wXUWzmxFj98pGcCcZ9N6-0">
          <mxGeometry width="50" height="50" relative="1" as="geometry">
            <mxPoint x="570.0300000000002" y="440" as="sourcePoint" />
            <mxPoint x="710.03" y="610" as="targetPoint" />
            <Array as="points">
              <mxPoint x="760" y="200" />
              <mxPoint x="560" y="200" />
            </Array>
          </mxGeometry>
        </mxCell>
        <mxCell id="wXUWzmxFj98pGcCcZ9N6-3" value="" style="endArrow=blockThin;html=1;fontSize=20;edgeStyle=orthogonalEdgeStyle;elbow=vertical;endFill=1;entryX=0.75;entryY=0;entryDx=0;entryDy=0;exitX=0.5;exitY=1;exitDx=0;exitDy=0;" edge="1" parent="2yhB7PdMfcXvb_MeoOgO-1" source="jWrQEUrVry93C4lxfcs1-9" target="wXUWzmxFj98pGcCcZ9N6-0">
          <mxGeometry width="50" height="50" relative="1" as="geometry">
            <mxPoint x="570.0299999999997" y="440" as="sourcePoint" />
            <mxPoint x="570" y="790" as="targetPoint" />
            <Array as="points">
              <mxPoint x="760" y="360" />
              <mxPoint x="640" y="360" />
            </Array>
          </mxGeometry>
        </mxCell>
        <mxCell id="wXUWzmxFj98pGcCcZ9N6-5" value="Val 4" style="ellipse;whiteSpace=wrap;html=1;fontSize=20;fillColor=#f5f5f5;strokeColor=#666666;fontColor=#333333;" vertex="1" parent="2yhB7PdMfcXvb_MeoOgO-1">
          <mxGeometry x="720" y="620" width="80" height="40" as="geometry" />
        </mxCell>
        <mxCell id="wXUWzmxFj98pGcCcZ9N6-6" value="" style="endArrow=blockThin;html=1;fontSize=20;edgeStyle=orthogonalEdgeStyle;elbow=vertical;endFill=1;exitX=0.5;exitY=1;exitDx=0;exitDy=0;entryX=0.5;entryY=0;entryDx=0;entryDy=0;" edge="1" parent="2yhB7PdMfcXvb_MeoOgO-1" source="jWrQEUrVry93C4lxfcs1-8" target="wXUWzmxFj98pGcCcZ9N6-5">
          <mxGeometry width="50" height="50" relative="1" as="geometry">
            <mxPoint x="610.03" y="400" as="sourcePoint" />
            <mxPoint x="750.0585714285714" y="570" as="targetPoint" />
          </mxGeometry>
        </mxCell>
        <mxCell id="wXUWzmxFj98pGcCcZ9N6-7" value="" style="endArrow=blockThin;html=1;fontSize=20;edgeStyle=orthogonalEdgeStyle;elbow=vertical;endFill=1;exitX=0.5;exitY=1;exitDx=0;exitDy=0;entryX=0.5;entryY=0;entryDx=0;entryDy=0;" edge="1" parent="2yhB7PdMfcXvb_MeoOgO-1" source="wXUWzmxFj98pGcCcZ9N6-5" target="wXUWzmxFj98pGcCcZ9N6-0">
          <mxGeometry width="50" height="50" relative="1" as="geometry">
            <mxPoint x="730" y="650" as="sourcePoint" />
            <mxPoint x="790.03" y="720" as="targetPoint" />
            <Array as="points">
              <mxPoint x="760" y="700" />
              <mxPoint x="600" y="700" />
            </Array>
          </mxGeometry>
        </mxCell>
        <mxCell id="MiVIkGpbcjn0Qs3Gk0Ok-3" value="Instr 1" style="rounded=1;whiteSpace=wrap;html=1;fontSize=20;fillColor=#dae8fc;strokeColor=#6c8ebf;" vertex="1" parent="2yhB7PdMfcXvb_MeoOgO-1">
          <mxGeometry x="1160" y="80" width="160" height="40" as="geometry" />
        </mxCell>
        <mxCell id="MiVIkGpbcjn0Qs3Gk0Ok-4" value="Val 1" style="ellipse;whiteSpace=wrap;html=1;fontSize=20;fillColor=#f5f5f5;strokeColor=#666666;fontColor=#333333;" vertex="1" parent="2yhB7PdMfcXvb_MeoOgO-1">
          <mxGeometry x="1200" y="140" width="80" height="40" as="geometry" />
        </mxCell>
        <mxCell id="MiVIkGpbcjn0Qs3Gk0Ok-5" value="Instr 2" style="rounded=1;whiteSpace=wrap;html=1;fontSize=20;fillColor=#dae8fc;strokeColor=#6c8ebf;" vertex="1" parent="2yhB7PdMfcXvb_MeoOgO-1">
          <mxGeometry x="1160" y="240" width="160" height="40" as="geometry" />
        </mxCell>
        <mxCell id="MiVIkGpbcjn0Qs3Gk0Ok-6" value="Instr 3" style="rounded=1;whiteSpace=wrap;html=1;fontSize=20;fillColor=#dae8fc;strokeColor=#6c8ebf;" vertex="1" parent="2yhB7PdMfcXvb_MeoOgO-1">
          <mxGeometry x="1160" y="400" width="160" height="40" as="geometry" />
        </mxCell>
        <mxCell id="MiVIkGpbcjn0Qs3Gk0Ok-7" value="Instr 4" style="rounded=1;whiteSpace=wrap;html=1;fontSize=20;fillColor=#dae8fc;strokeColor=#6c8ebf;" vertex="1" parent="2yhB7PdMfcXvb_MeoOgO-1">
          <mxGeometry x="1160" y="560" width="160" height="40" as="geometry" />
        </mxCell>
        <mxCell id="MiVIkGpbcjn0Qs3Gk0Ok-8" value="Val 2" style="ellipse;whiteSpace=wrap;html=1;fontSize=20;fillColor=#f5f5f5;strokeColor=#666666;fontColor=#333333;" vertex="1" parent="2yhB7PdMfcXvb_MeoOgO-1">
          <mxGeometry x="1200" y="300" width="80" height="40" as="geometry" />
        </mxCell>
        <mxCell id="MiVIkGpbcjn0Qs3Gk0Ok-9" value="Val 3" style="ellipse;whiteSpace=wrap;html=1;fontSize=20;fillColor=#f5f5f5;strokeColor=#666666;fontColor=#333333;" vertex="1" parent="2yhB7PdMfcXvb_MeoOgO-1">
          <mxGeometry x="1200" y="460" width="80" height="40" as="geometry" />
        </mxCell>
        <mxCell id="MiVIkGpbcjn0Qs3Gk0Ok-10" value="" style="endArrow=blockThin;html=1;fontSize=20;edgeStyle=orthogonalEdgeStyle;elbow=vertical;endFill=1;entryX=0.5;entryY=0;entryDx=0;entryDy=0;exitX=0.5;exitY=1;exitDx=0;exitDy=0;" edge="1" parent="2yhB7PdMfcXvb_MeoOgO-1" source="MiVIkGpbcjn0Qs3Gk0Ok-3" target="MiVIkGpbcjn0Qs3Gk0Ok-4">
          <mxGeometry width="50" height="50" relative="1" as="geometry">
            <mxPoint x="1130" y="160" as="sourcePoint" />
            <mxPoint x="1030" y="220" as="targetPoint" />
          </mxGeometry>
        </mxCell>
        <mxCell id="MiVIkGpbcjn0Qs3Gk0Ok-11" value="" style="endArrow=blockThin;html=1;fontSize=20;edgeStyle=orthogonalEdgeStyle;elbow=vertical;endFill=1;entryX=0.25;entryY=0;entryDx=0;entryDy=0;exitX=0.5;exitY=1;exitDx=0;exitDy=0;" edge="1" parent="2yhB7PdMfcXvb_MeoOgO-1" source="MiVIkGpbcjn0Qs3Gk0Ok-4" target="MiVIkGpbcjn0Qs3Gk0Ok-7">
          <mxGeometry width="50" height="50" relative="1" as="geometry">
            <mxPoint x="1040" y="290" as="sourcePoint" />
            <mxPoint x="830" y="130" as="targetPoint" />
            <Array as="points">
              <mxPoint x="1240" y="200" />
              <mxPoint x="1040" y="200" />
              <mxPoint x="1040" y="540" />
              <mxPoint x="1200" y="540" />
            </Array>
          </mxGeometry>
        </mxCell>
        <mxCell id="MiVIkGpbcjn0Qs3Gk0Ok-12" value="" style="endArrow=blockThin;html=1;fontSize=20;edgeStyle=orthogonalEdgeStyle;elbow=vertical;endFill=1;" edge="1" parent="2yhB7PdMfcXvb_MeoOgO-1" source="MiVIkGpbcjn0Qs3Gk0Ok-6" target="MiVIkGpbcjn0Qs3Gk0Ok-9">
          <mxGeometry width="50" height="50" relative="1" as="geometry">
            <mxPoint x="1270" y="470" as="sourcePoint" />
            <mxPoint x="840" y="180" as="targetPoint" />
            <Array as="points">
              <mxPoint x="1240" y="460" />
              <mxPoint x="1240" y="460" />
            </Array>
          </mxGeometry>
        </mxCell>
        <mxCell id="MiVIkGpbcjn0Qs3Gk0Ok-13" value="" style="endArrow=blockThin;html=1;fontSize=20;entryX=0.5;entryY=0;entryDx=0;entryDy=0;edgeStyle=orthogonalEdgeStyle;elbow=vertical;endFill=1;" edge="1" parent="2yhB7PdMfcXvb_MeoOgO-1" source="MiVIkGpbcjn0Qs3Gk0Ok-8" target="MiVIkGpbcjn0Qs3Gk0Ok-6">
          <mxGeometry width="50" height="50" relative="1" as="geometry">
            <mxPoint x="970" y="410" as="sourcePoint" />
            <mxPoint x="1100" y="470" as="targetPoint" />
            <Array as="points" />
          </mxGeometry>
        </mxCell>
        <mxCell id="MiVIkGpbcjn0Qs3Gk0Ok-14" value="" style="endArrow=blockThin;html=1;fontSize=20;edgeStyle=orthogonalEdgeStyle;elbow=vertical;rounded=1;strokeWidth=1;arcSize=20;endFill=1;exitX=0.5;exitY=1;exitDx=0;exitDy=0;" edge="1" parent="2yhB7PdMfcXvb_MeoOgO-1" source="MiVIkGpbcjn0Qs3Gk0Ok-4" target="MiVIkGpbcjn0Qs3Gk0Ok-6">
          <mxGeometry width="50" height="50" relative="1" as="geometry">
            <mxPoint x="1040" y="300" as="sourcePoint" />
            <mxPoint x="1430" y="360" as="targetPoint" />
            <Array as="points">
              <mxPoint x="1240" y="200" />
              <mxPoint x="1040" y="200" />
              <mxPoint x="1040" y="380" />
              <mxPoint x="1240" y="380" />
            </Array>
          </mxGeometry>
        </mxCell>
        <mxCell id="MiVIkGpbcjn0Qs3Gk0Ok-15" value="" style="endArrow=blockThin;html=1;fontSize=20;edgeStyle=orthogonalEdgeStyle;elbow=vertical;entryX=0.5;entryY=0;entryDx=0;entryDy=0;endFill=1;" edge="1" parent="2yhB7PdMfcXvb_MeoOgO-1" source="MiVIkGpbcjn0Qs3Gk0Ok-5" target="MiVIkGpbcjn0Qs3Gk0Ok-8">
          <mxGeometry width="50" height="50" relative="1" as="geometry">
            <mxPoint x="1250" y="300" as="sourcePoint" />
            <mxPoint x="910" y="380" as="targetPoint" />
            <Array as="points">
              <mxPoint x="1240" y="290" />
              <mxPoint x="1240" y="290" />
            </Array>
          </mxGeometry>
        </mxCell>
        <mxCell id="MiVIkGpbcjn0Qs3Gk0Ok-16" value="" style="endArrow=blockThin;html=1;fontSize=20;entryX=0.5;entryY=0;entryDx=0;entryDy=0;edgeStyle=orthogonalEdgeStyle;elbow=vertical;endFill=1;" edge="1" parent="2yhB7PdMfcXvb_MeoOgO-1" source="MiVIkGpbcjn0Qs3Gk0Ok-9" target="MiVIkGpbcjn0Qs3Gk0Ok-7">
          <mxGeometry width="50" height="50" relative="1" as="geometry">
            <mxPoint x="1000" y="540" as="sourcePoint" />
            <mxPoint x="840" y="220" as="targetPoint" />
            <Array as="points" />
          </mxGeometry>
        </mxCell>
        <mxCell id="MiVIkGpbcjn0Qs3Gk0Ok-17" value="" style="endArrow=blockThin;html=1;strokeWidth=1;fontSize=20;dashed=1;endFill=1;edgeStyle=orthogonalEdgeStyle;fillColor=#f5f5f5;strokeColor=#808080;exitX=1;exitY=1;exitDx=0;exitDy=0;entryX=1;entryY=0;entryDx=0;entryDy=0;" edge="1" parent="2yhB7PdMfcXvb_MeoOgO-1" source="MiVIkGpbcjn0Qs3Gk0Ok-3" target="MiVIkGpbcjn0Qs3Gk0Ok-5">
          <mxGeometry width="50" height="50" relative="1" as="geometry">
            <mxPoint x="900" y="340" as="sourcePoint" />
            <mxPoint x="1370" y="230" as="targetPoint" />
          </mxGeometry>
        </mxCell>
        <mxCell id="MiVIkGpbcjn0Qs3Gk0Ok-18" value="" style="endArrow=blockThin;html=1;strokeWidth=1;fontSize=20;dashed=1;endFill=1;edgeStyle=orthogonalEdgeStyle;fillColor=#f5f5f5;strokeColor=#808080;exitX=1;exitY=1;exitDx=0;exitDy=0;entryX=1;entryY=0;entryDx=0;entryDy=0;" edge="1" parent="2yhB7PdMfcXvb_MeoOgO-1" source="MiVIkGpbcjn0Qs3Gk0Ok-6" target="MiVIkGpbcjn0Qs3Gk0Ok-7">
          <mxGeometry width="50" height="50" relative="1" as="geometry">
            <mxPoint x="1389.9985714285713" y="190" as="sourcePoint" />
            <mxPoint x="1389.9985714285713" y="310" as="targetPoint" />
          </mxGeometry>
        </mxCell>
        <mxCell id="MiVIkGpbcjn0Qs3Gk0Ok-19" value="" style="endArrow=blockThin;html=1;strokeWidth=1;fontSize=20;dashed=1;endFill=1;edgeStyle=orthogonalEdgeStyle;fillColor=#f5f5f5;strokeColor=#808080;exitX=1;exitY=1;exitDx=0;exitDy=0;entryX=1;entryY=0;entryDx=0;entryDy=0;" edge="1" parent="2yhB7PdMfcXvb_MeoOgO-1" source="MiVIkGpbcjn0Qs3Gk0Ok-5" target="MiVIkGpbcjn0Qs3Gk0Ok-6">
          <mxGeometry width="50" height="50" relative="1" as="geometry">
            <mxPoint x="1330.0285714285715" y="150" as="sourcePoint" />
            <mxPoint x="1330.0285714285715" y="270" as="targetPoint" />
          </mxGeometry>
        </mxCell>
        <mxCell id="MiVIkGpbcjn0Qs3Gk0Ok-20" value="return" style="rounded=0;whiteSpace=wrap;html=1;fontFamily=Helvetica;fontSize=20;fontColor=#000000;align=center;strokeColor=#9673a6;fillColor=#e1d5e7;" vertex="1" parent="2yhB7PdMfcXvb_MeoOgO-1">
          <mxGeometry x="1000" y="760" width="160" height="40" as="geometry" />
        </mxCell>
        <mxCell id="MiVIkGpbcjn0Qs3Gk0Ok-21" value="" style="endArrow=blockThin;html=1;fontSize=20;edgeStyle=orthogonalEdgeStyle;elbow=vertical;endFill=1;entryX=0.25;entryY=0;entryDx=0;entryDy=0;exitX=0.5;exitY=1;exitDx=0;exitDy=0;" edge="1" parent="2yhB7PdMfcXvb_MeoOgO-1" source="MiVIkGpbcjn0Qs3Gk0Ok-4" target="MiVIkGpbcjn0Qs3Gk0Ok-20">
          <mxGeometry width="50" height="50" relative="1" as="geometry">
            <mxPoint x="1040" y="310" as="sourcePoint" />
            <mxPoint x="1230.0299999999997" y="530" as="targetPoint" />
            <Array as="points">
              <mxPoint x="1240" y="200" />
              <mxPoint x="1040" y="200" />
            </Array>
          </mxGeometry>
        </mxCell>
        <mxCell id="MiVIkGpbcjn0Qs3Gk0Ok-22" value="" style="endArrow=blockThin;html=1;fontSize=20;edgeStyle=orthogonalEdgeStyle;elbow=vertical;endFill=1;entryX=0.75;entryY=0;entryDx=0;entryDy=0;exitX=0.5;exitY=1;exitDx=0;exitDy=0;" edge="1" parent="2yhB7PdMfcXvb_MeoOgO-1" source="MiVIkGpbcjn0Qs3Gk0Ok-8" target="MiVIkGpbcjn0Qs3Gk0Ok-20">
          <mxGeometry width="50" height="50" relative="1" as="geometry">
            <mxPoint x="1090.0299999999997" y="360" as="sourcePoint" />
            <mxPoint x="1090" y="710" as="targetPoint" />
            <Array as="points">
              <mxPoint x="1240" y="360" />
              <mxPoint x="1120" y="360" />
            </Array>
          </mxGeometry>
        </mxCell>
        <mxCell id="MiVIkGpbcjn0Qs3Gk0Ok-23" value="Val 4" style="ellipse;whiteSpace=wrap;html=1;fontSize=20;fillColor=#f5f5f5;strokeColor=#666666;fontColor=#333333;" vertex="1" parent="2yhB7PdMfcXvb_MeoOgO-1">
          <mxGeometry x="1200" y="620" width="80" height="40" as="geometry" />
        </mxCell>
        <mxCell id="MiVIkGpbcjn0Qs3Gk0Ok-24" value="" style="endArrow=blockThin;html=1;fontSize=20;edgeStyle=orthogonalEdgeStyle;elbow=vertical;endFill=1;exitX=0.5;exitY=1;exitDx=0;exitDy=0;entryX=0.5;entryY=0;entryDx=0;entryDy=0;" edge="1" parent="2yhB7PdMfcXvb_MeoOgO-1" source="MiVIkGpbcjn0Qs3Gk0Ok-7" target="MiVIkGpbcjn0Qs3Gk0Ok-23">
          <mxGeometry width="50" height="50" relative="1" as="geometry">
            <mxPoint x="1090.0299999999997" y="400" as="sourcePoint" />
            <mxPoint x="1230.0585714285717" y="570" as="targetPoint" />
          </mxGeometry>
        </mxCell>
        <mxCell id="MiVIkGpbcjn0Qs3Gk0Ok-25" value="" style="endArrow=blockThin;html=1;fontSize=20;edgeStyle=orthogonalEdgeStyle;elbow=vertical;endFill=1;exitX=0.5;exitY=1;exitDx=0;exitDy=0;entryX=0.5;entryY=0;entryDx=0;entryDy=0;" edge="1" parent="2yhB7PdMfcXvb_MeoOgO-1" source="MiVIkGpbcjn0Qs3Gk0Ok-23" target="etiyJ6pRAoIz5sSh85Ad-0">
          <mxGeometry width="50" height="50" relative="1" as="geometry">
            <mxPoint x="1250" y="570" as="sourcePoint" />
            <mxPoint x="1310.0299999999997" y="640" as="targetPoint" />
          </mxGeometry>
        </mxCell>
        <mxCell id="etiyJ6pRAoIz5sSh85Ad-0" value="&lt;font style=&quot;font-size: 15px&quot;&gt;WRITE_STCK_F&lt;/font&gt;" style="rounded=1;whiteSpace=wrap;html=1;fontSize=15;fillColor=#dae8fc;strokeColor=#6c8ebf;" vertex="1" parent="2yhB7PdMfcXvb_MeoOgO-1">
          <mxGeometry x="1160" y="680" width="160" height="40" as="geometry" />
        </mxCell>
        <mxCell id="etiyJ6pRAoIz5sSh85Ad-1" value="" style="endArrow=blockThin;html=1;fontSize=20;edgeStyle=orthogonalEdgeStyle;elbow=vertical;endFill=1;exitX=0;exitY=0.5;exitDx=0;exitDy=0;" edge="1" parent="2yhB7PdMfcXvb_MeoOgO-1" source="etiyJ6pRAoIz5sSh85Ad-0" target="MiVIkGpbcjn0Qs3Gk0Ok-20">
          <mxGeometry width="50" height="50" relative="1" as="geometry">
            <mxPoint x="1250" y="630" as="sourcePoint" />
            <mxPoint x="1250" y="690" as="targetPoint" />
          </mxGeometry>
        </mxCell>
      </root>
    </mxGraphModel>
  </diagram>
  <diagram id="Yi0NzXzHRdIklXcCCXcS" name="Page-4">
    <mxGraphModel dx="1922" dy="1414" grid="1" gridSize="10" guides="1" tooltips="1" connect="1" arrows="1" fold="1" page="0" pageScale="1" pageWidth="1654" pageHeight="1169" math="0" shadow="0">
      <root>
        <mxCell id="wtKoNSbRxSojZvVcUY4Y-0" />
        <mxCell id="wtKoNSbRxSojZvVcUY4Y-1" parent="wtKoNSbRxSojZvVcUY4Y-0" />
        <mxCell id="wtKoNSbRxSojZvVcUY4Y-2" value="Instr 1" style="rounded=1;whiteSpace=wrap;html=1;fontSize=15;fillColor=#dae8fc;strokeColor=#6c8ebf;" vertex="1" parent="wtKoNSbRxSojZvVcUY4Y-1">
          <mxGeometry x="340" y="100" width="160" height="40" as="geometry" />
        </mxCell>
        <mxCell id="wtKoNSbRxSojZvVcUY4Y-3" value="Val 1" style="ellipse;whiteSpace=wrap;html=1;fontSize=15;fillColor=#f5f5f5;strokeColor=#666666;fontColor=#333333;" vertex="1" parent="wtKoNSbRxSojZvVcUY4Y-1">
          <mxGeometry x="180" y="260" width="80" height="40" as="geometry" />
        </mxCell>
        <mxCell id="wtKoNSbRxSojZvVcUY4Y-4" value="Instr 2" style="rounded=1;whiteSpace=wrap;html=1;fontSize=15;fillColor=#dae8fc;strokeColor=#6c8ebf;" vertex="1" parent="wtKoNSbRxSojZvVcUY4Y-1">
          <mxGeometry x="340" y="260" width="160" height="40" as="geometry" />
        </mxCell>
        <mxCell id="wtKoNSbRxSojZvVcUY4Y-5" value="Instr 3" style="rounded=1;whiteSpace=wrap;html=1;fontSize=15;fillColor=#dae8fc;strokeColor=#6c8ebf;" vertex="1" parent="wtKoNSbRxSojZvVcUY4Y-1">
          <mxGeometry x="340" y="420" width="160" height="40" as="geometry" />
        </mxCell>
        <mxCell id="wtKoNSbRxSojZvVcUY4Y-6" value="Instr 4" style="rounded=1;whiteSpace=wrap;html=1;fontSize=15;fillColor=#dae8fc;strokeColor=#6c8ebf;" vertex="1" parent="wtKoNSbRxSojZvVcUY4Y-1">
          <mxGeometry x="340" y="580" width="160" height="40" as="geometry" />
        </mxCell>
        <mxCell id="wtKoNSbRxSojZvVcUY4Y-7" value="Val 2" style="ellipse;whiteSpace=wrap;html=1;fontSize=15;fillColor=#f5f5f5;strokeColor=#666666;fontColor=#333333;" vertex="1" parent="wtKoNSbRxSojZvVcUY4Y-1">
          <mxGeometry x="380" y="320" width="80" height="40" as="geometry" />
        </mxCell>
        <mxCell id="wtKoNSbRxSojZvVcUY4Y-8" value="Val 3" style="ellipse;whiteSpace=wrap;html=1;fontSize=15;fillColor=#f5f5f5;strokeColor=#666666;fontColor=#333333;" vertex="1" parent="wtKoNSbRxSojZvVcUY4Y-1">
          <mxGeometry x="380" y="480" width="80" height="40" as="geometry" />
        </mxCell>
        <mxCell id="wtKoNSbRxSojZvVcUY4Y-9" value="" style="endArrow=blockThin;html=1;fontSize=15;edgeStyle=orthogonalEdgeStyle;elbow=vertical;endFill=1;entryX=0.5;entryY=0;entryDx=0;entryDy=0;" edge="1" parent="wtKoNSbRxSojZvVcUY4Y-1" source="wtKoNSbRxSojZvVcUY4Y-2" target="wtKoNSbRxSojZvVcUY4Y-3">
          <mxGeometry width="50" height="50" relative="1" as="geometry">
            <mxPoint x="310" y="140" as="sourcePoint" />
            <mxPoint x="350" y="390" as="targetPoint" />
            <Array as="points">
              <mxPoint x="420" y="160" />
              <mxPoint x="220" y="160" />
            </Array>
          </mxGeometry>
        </mxCell>
        <mxCell id="wtKoNSbRxSojZvVcUY4Y-10" value="" style="endArrow=blockThin;html=1;fontSize=15;edgeStyle=orthogonalEdgeStyle;elbow=vertical;endFill=1;exitX=0.5;exitY=1;exitDx=0;exitDy=0;entryX=0.25;entryY=0;entryDx=0;entryDy=0;" edge="1" parent="wtKoNSbRxSojZvVcUY4Y-1" source="wtKoNSbRxSojZvVcUY4Y-3" target="wtKoNSbRxSojZvVcUY4Y-6">
          <mxGeometry width="50" height="50" relative="1" as="geometry">
            <mxPoint x="190" y="310" as="sourcePoint" />
            <mxPoint x="10" y="190" as="targetPoint" />
            <Array as="points">
              <mxPoint x="220" y="540" />
              <mxPoint x="380" y="540" />
            </Array>
          </mxGeometry>
        </mxCell>
        <mxCell id="wtKoNSbRxSojZvVcUY4Y-11" value="" style="endArrow=blockThin;html=1;fontSize=15;edgeStyle=orthogonalEdgeStyle;elbow=vertical;endFill=1;" edge="1" parent="wtKoNSbRxSojZvVcUY4Y-1" source="wtKoNSbRxSojZvVcUY4Y-5" target="wtKoNSbRxSojZvVcUY4Y-8">
          <mxGeometry width="50" height="50" relative="1" as="geometry">
            <mxPoint x="450" y="490" as="sourcePoint" />
            <mxPoint x="20" y="200" as="targetPoint" />
            <Array as="points">
              <mxPoint x="420" y="480" />
              <mxPoint x="420" y="480" />
            </Array>
          </mxGeometry>
        </mxCell>
        <mxCell id="wtKoNSbRxSojZvVcUY4Y-12" value="" style="endArrow=blockThin;html=1;fontSize=15;entryX=0.5;entryY=0;entryDx=0;entryDy=0;edgeStyle=orthogonalEdgeStyle;elbow=vertical;endFill=1;" edge="1" parent="wtKoNSbRxSojZvVcUY4Y-1" source="wtKoNSbRxSojZvVcUY4Y-7" target="wtKoNSbRxSojZvVcUY4Y-5">
          <mxGeometry width="50" height="50" relative="1" as="geometry">
            <mxPoint x="150" y="430" as="sourcePoint" />
            <mxPoint x="280" y="490" as="targetPoint" />
            <Array as="points" />
          </mxGeometry>
        </mxCell>
        <mxCell id="wtKoNSbRxSojZvVcUY4Y-13" value="" style="endArrow=blockThin;html=1;fontSize=15;edgeStyle=orthogonalEdgeStyle;elbow=vertical;rounded=1;strokeWidth=1;arcSize=20;endFill=1;" edge="1" parent="wtKoNSbRxSojZvVcUY4Y-1" source="wtKoNSbRxSojZvVcUY4Y-3" target="wtKoNSbRxSojZvVcUY4Y-5">
          <mxGeometry width="50" height="50" relative="1" as="geometry">
            <mxPoint x="-10" y="270" as="sourcePoint" />
            <mxPoint x="610" y="420" as="targetPoint" />
            <Array as="points">
              <mxPoint x="220" y="400" />
              <mxPoint x="400" y="400" />
            </Array>
          </mxGeometry>
        </mxCell>
        <mxCell id="wtKoNSbRxSojZvVcUY4Y-14" value="" style="endArrow=blockThin;html=1;fontSize=15;edgeStyle=orthogonalEdgeStyle;elbow=vertical;entryX=0.5;entryY=0;entryDx=0;entryDy=0;endFill=1;" edge="1" parent="wtKoNSbRxSojZvVcUY4Y-1" source="wtKoNSbRxSojZvVcUY4Y-4" target="wtKoNSbRxSojZvVcUY4Y-7">
          <mxGeometry width="50" height="50" relative="1" as="geometry">
            <mxPoint x="430" y="320" as="sourcePoint" />
            <mxPoint x="90" y="400" as="targetPoint" />
            <Array as="points">
              <mxPoint x="420" y="310" />
              <mxPoint x="420" y="310" />
            </Array>
          </mxGeometry>
        </mxCell>
        <mxCell id="wtKoNSbRxSojZvVcUY4Y-15" value="" style="endArrow=blockThin;html=1;fontSize=15;entryX=0.5;entryY=0;entryDx=0;entryDy=0;edgeStyle=orthogonalEdgeStyle;elbow=vertical;endFill=1;" edge="1" parent="wtKoNSbRxSojZvVcUY4Y-1" source="wtKoNSbRxSojZvVcUY4Y-8" target="wtKoNSbRxSojZvVcUY4Y-6">
          <mxGeometry width="50" height="50" relative="1" as="geometry">
            <mxPoint x="180" y="560" as="sourcePoint" />
            <mxPoint x="20" y="240" as="targetPoint" />
            <Array as="points" />
          </mxGeometry>
        </mxCell>
        <mxCell id="wtKoNSbRxSojZvVcUY4Y-16" value="" style="endArrow=blockThin;html=1;strokeWidth=1;fontSize=15;dashed=1;endFill=1;edgeStyle=orthogonalEdgeStyle;fillColor=#f5f5f5;strokeColor=#666666;" edge="1" parent="wtKoNSbRxSojZvVcUY4Y-1" source="wtKoNSbRxSojZvVcUY4Y-2" target="wtKoNSbRxSojZvVcUY4Y-4">
          <mxGeometry width="50" height="50" relative="1" as="geometry">
            <mxPoint x="80" y="320" as="sourcePoint" />
            <mxPoint x="130" y="270" as="targetPoint" />
            <Array as="points">
              <mxPoint x="480" y="240" />
              <mxPoint x="480" y="240" />
            </Array>
          </mxGeometry>
        </mxCell>
        <mxCell id="wtKoNSbRxSojZvVcUY4Y-17" value="" style="endArrow=blockThin;html=1;strokeWidth=1;fontSize=15;dashed=1;endFill=1;edgeStyle=orthogonalEdgeStyle;fillColor=#f5f5f5;strokeColor=#666666;" edge="1" parent="wtKoNSbRxSojZvVcUY4Y-1" source="wtKoNSbRxSojZvVcUY4Y-5" target="wtKoNSbRxSojZvVcUY4Y-6">
          <mxGeometry width="50" height="50" relative="1" as="geometry">
            <mxPoint x="569.9985714285713" y="210" as="sourcePoint" />
            <mxPoint x="569.9985714285713" y="330" as="targetPoint" />
            <Array as="points">
              <mxPoint x="480" y="480" />
              <mxPoint x="480" y="480" />
            </Array>
          </mxGeometry>
        </mxCell>
        <mxCell id="wtKoNSbRxSojZvVcUY4Y-18" value="" style="endArrow=blockThin;html=1;strokeWidth=1;fontSize=15;dashed=1;endFill=1;edgeStyle=orthogonalEdgeStyle;fillColor=#f5f5f5;strokeColor=#666666;" edge="1" parent="wtKoNSbRxSojZvVcUY4Y-1" source="wtKoNSbRxSojZvVcUY4Y-4" target="wtKoNSbRxSojZvVcUY4Y-5">
          <mxGeometry width="50" height="50" relative="1" as="geometry">
            <mxPoint x="510.02857142857147" y="170" as="sourcePoint" />
            <mxPoint x="510.02857142857147" y="290" as="targetPoint" />
            <Array as="points">
              <mxPoint x="480" y="330" />
              <mxPoint x="480" y="330" />
            </Array>
          </mxGeometry>
        </mxCell>
        <mxCell id="wtKoNSbRxSojZvVcUY4Y-19" value="return" style="rounded=0;whiteSpace=wrap;html=1;fontFamily=Helvetica;fontSize=15;fontColor=#000000;align=center;strokeColor=#9673a6;fillColor=#e1d5e7;" vertex="1" parent="wtKoNSbRxSojZvVcUY4Y-1">
          <mxGeometry x="180" y="900" width="160" height="40" as="geometry" />
        </mxCell>
        <mxCell id="wtKoNSbRxSojZvVcUY4Y-20" value="" style="endArrow=blockThin;html=1;fontSize=15;edgeStyle=orthogonalEdgeStyle;elbow=vertical;endFill=1;entryX=0.25;entryY=0;entryDx=0;entryDy=0;" edge="1" parent="wtKoNSbRxSojZvVcUY4Y-1" source="wtKoNSbRxSojZvVcUY4Y-3" target="wtKoNSbRxSojZvVcUY4Y-19">
          <mxGeometry width="50" height="50" relative="1" as="geometry">
            <mxPoint x="270.0300000000002" y="420" as="sourcePoint" />
            <mxPoint x="410.02999999999975" y="590" as="targetPoint" />
            <Array as="points" />
          </mxGeometry>
        </mxCell>
        <mxCell id="wtKoNSbRxSojZvVcUY4Y-21" value="" style="endArrow=blockThin;html=1;fontSize=15;edgeStyle=orthogonalEdgeStyle;elbow=vertical;endFill=1;entryX=0.75;entryY=0;entryDx=0;entryDy=0;exitX=0.5;exitY=1;exitDx=0;exitDy=0;" edge="1" parent="wtKoNSbRxSojZvVcUY4Y-1" source="wtKoNSbRxSojZvVcUY4Y-7" target="wtKoNSbRxSojZvVcUY4Y-19">
          <mxGeometry width="50" height="50" relative="1" as="geometry">
            <mxPoint x="270.02999999999975" y="420" as="sourcePoint" />
            <mxPoint x="270" y="770" as="targetPoint" />
            <Array as="points">
              <mxPoint x="420" y="380" />
              <mxPoint x="300" y="380" />
            </Array>
          </mxGeometry>
        </mxCell>
        <mxCell id="wtKoNSbRxSojZvVcUY4Y-22" value="Val 4" style="ellipse;whiteSpace=wrap;html=1;fontSize=15;fillColor=#f5f5f5;strokeColor=#666666;fontColor=#333333;" vertex="1" parent="wtKoNSbRxSojZvVcUY4Y-1">
          <mxGeometry x="380" y="640" width="80" height="40" as="geometry" />
        </mxCell>
        <mxCell id="wtKoNSbRxSojZvVcUY4Y-23" value="" style="endArrow=blockThin;html=1;fontSize=15;edgeStyle=orthogonalEdgeStyle;elbow=vertical;endFill=1;exitX=0.5;exitY=1;exitDx=0;exitDy=0;entryX=0.5;entryY=0;entryDx=0;entryDy=0;" edge="1" parent="wtKoNSbRxSojZvVcUY4Y-1" source="wtKoNSbRxSojZvVcUY4Y-6" target="wtKoNSbRxSojZvVcUY4Y-22">
          <mxGeometry width="50" height="50" relative="1" as="geometry">
            <mxPoint x="270.02999999999975" y="420" as="sourcePoint" />
            <mxPoint x="410.05857142857167" y="590" as="targetPoint" />
          </mxGeometry>
        </mxCell>
        <mxCell id="wtKoNSbRxSojZvVcUY4Y-24" value="" style="endArrow=blockThin;html=1;fontSize=15;edgeStyle=orthogonalEdgeStyle;elbow=vertical;endFill=1;exitX=0.5;exitY=1;exitDx=0;exitDy=0;entryX=0.5;entryY=0;entryDx=0;entryDy=0;" edge="1" parent="wtKoNSbRxSojZvVcUY4Y-1" source="wtKoNSbRxSojZvVcUY4Y-22" target="wtKoNSbRxSojZvVcUY4Y-25">
          <mxGeometry width="50" height="50" relative="1" as="geometry">
            <mxPoint x="430" y="630" as="sourcePoint" />
            <mxPoint x="490.02999999999975" y="700" as="targetPoint" />
          </mxGeometry>
        </mxCell>
        <mxCell id="wtKoNSbRxSojZvVcUY4Y-25" value="&lt;font style=&quot;font-size: 15px;&quot;&gt;WRITE_STCK_F&lt;/font&gt;" style="rounded=1;whiteSpace=wrap;html=1;fontSize=15;fillColor=#dae8fc;strokeColor=#6c8ebf;" vertex="1" parent="wtKoNSbRxSojZvVcUY4Y-1">
          <mxGeometry x="340" y="740" width="160" height="40" as="geometry" />
        </mxCell>
        <mxCell id="wtKoNSbRxSojZvVcUY4Y-26" value="" style="endArrow=blockThin;html=1;fontSize=15;edgeStyle=orthogonalEdgeStyle;elbow=vertical;endFill=1;exitX=0;exitY=0.5;exitDx=0;exitDy=0;" edge="1" parent="wtKoNSbRxSojZvVcUY4Y-1" source="wtKoNSbRxSojZvVcUY4Y-25" target="wtKoNSbRxSojZvVcUY4Y-19">
          <mxGeometry width="50" height="50" relative="1" as="geometry">
            <mxPoint x="430" y="690" as="sourcePoint" />
            <mxPoint x="430" y="750" as="targetPoint" />
          </mxGeometry>
        </mxCell>
        <mxCell id="wtKoNSbRxSojZvVcUY4Y-27" value="Val 1" style="shape=umlLifeline;perimeter=lifelinePerimeter;whiteSpace=wrap;html=1;container=1;collapsible=0;recursiveResize=0;outlineConnect=0;fontSize=15;size=40;" vertex="1" parent="wtKoNSbRxSojZvVcUY4Y-1">
          <mxGeometry x="720" y="-40" width="120" height="760" as="geometry" />
        </mxCell>
        <mxCell id="wtKoNSbRxSojZvVcUY4Y-28" value="Val x" style="shape=umlLifeline;perimeter=lifelinePerimeter;whiteSpace=wrap;html=1;container=1;collapsible=0;recursiveResize=0;outlineConnect=0;fontSize=15;size=40;" vertex="1" parent="wtKoNSbRxSojZvVcUY4Y-1">
          <mxGeometry x="840" y="40" width="120" height="560" as="geometry" />
        </mxCell>
        <mxCell id="wtKoNSbRxSojZvVcUY4Y-29" value="Val 2" style="shape=umlLifeline;perimeter=lifelinePerimeter;whiteSpace=wrap;html=1;container=1;collapsible=0;recursiveResize=0;outlineConnect=0;fontSize=15;size=40;" vertex="1" parent="wtKoNSbRxSojZvVcUY4Y-1">
          <mxGeometry x="960" y="120" width="120" height="600" as="geometry" />
        </mxCell>
        <mxCell id="wtKoNSbRxSojZvVcUY4Y-30" value="Val 1" style="shape=umlLifeline;perimeter=lifelinePerimeter;whiteSpace=wrap;html=1;container=1;collapsible=0;recursiveResize=0;outlineConnect=0;fontSize=15;size=40;" vertex="1" parent="wtKoNSbRxSojZvVcUY4Y-1">
          <mxGeometry x="1080" y="200" width="120" height="320" as="geometry" />
        </mxCell>
        <mxCell id="wtKoNSbRxSojZvVcUY4Y-31" value="Instr 2" style="rounded=1;whiteSpace=wrap;html=1;fontSize=15;fillColor=#dae8fc;strokeColor=#6c8ebf;" vertex="1" parent="wtKoNSbRxSojZvVcUY4Y-1">
          <mxGeometry x="960" y="80" width="120" height="40" as="geometry" />
        </mxCell>
        <mxCell id="wwC3UuRe42o8p8dkMxy0-0" value="Instr 1" style="rounded=1;whiteSpace=wrap;html=1;fontSize=15;fillColor=#dae8fc;strokeColor=#6c8ebf;" vertex="1" parent="wtKoNSbRxSojZvVcUY4Y-1">
          <mxGeometry x="720" y="-80" width="120" height="40" as="geometry" />
        </mxCell>
        <mxCell id="wwC3UuRe42o8p8dkMxy0-1" value="PUSH_INT" style="rounded=1;whiteSpace=wrap;html=1;fontSize=15;fillColor=#dae8fc;strokeColor=#6c8ebf;" vertex="1" parent="wtKoNSbRxSojZvVcUY4Y-1">
          <mxGeometry x="840" width="120" height="40" as="geometry" />
        </mxCell>
        <mxCell id="wwC3UuRe42o8p8dkMxy0-2" value="READ_STCK_F" style="rounded=1;whiteSpace=wrap;html=1;fontSize=15;fillColor=#dae8fc;strokeColor=#6c8ebf;" vertex="1" parent="wtKoNSbRxSojZvVcUY4Y-1">
          <mxGeometry x="1080" y="160" width="120" height="40" as="geometry" />
        </mxCell>
        <mxCell id="ODqfe2zKY3OkpeH0_JQV-0" value="" style="endArrow=blockThin;html=1;fontSize=15;elbow=vertical;rounded=1;strokeWidth=1;arcSize=20;endFill=1;startArrow=oval;startFill=0;entryX=0;entryY=0.5;entryDx=0;entryDy=0;" edge="1" parent="wtKoNSbRxSojZvVcUY4Y-1" source="wtKoNSbRxSojZvVcUY4Y-27" target="wwC3UuRe42o8p8dkMxy0-2">
          <mxGeometry width="50" height="50" relative="1" as="geometry">
            <mxPoint x="860" y="179.99999999999977" as="sourcePoint" />
            <mxPoint x="1040.0588235294117" y="300" as="targetPoint" />
          </mxGeometry>
        </mxCell>
        <mxCell id="ODqfe2zKY3OkpeH0_JQV-1" value="READ_STCK_F" style="rounded=1;whiteSpace=wrap;html=1;fontSize=15;fillColor=#dae8fc;strokeColor=#6c8ebf;" vertex="1" parent="wtKoNSbRxSojZvVcUY4Y-1">
          <mxGeometry x="1200" y="240" width="120" height="40" as="geometry" />
        </mxCell>
        <mxCell id="ODqfe2zKY3OkpeH0_JQV-2" value="Val 1" style="shape=umlLifeline;perimeter=lifelinePerimeter;whiteSpace=wrap;html=1;container=1;collapsible=0;recursiveResize=0;outlineConnect=0;fontSize=15;size=40;" vertex="1" parent="wtKoNSbRxSojZvVcUY4Y-1">
          <mxGeometry x="1200" y="280" width="120" height="160" as="geometry" />
        </mxCell>
        <mxCell id="ODqfe2zKY3OkpeH0_JQV-3" value="" style="endArrow=blockThin;html=1;fontSize=15;elbow=vertical;rounded=1;strokeWidth=1;arcSize=20;endFill=1;startArrow=oval;startFill=0;entryX=0;entryY=0.5;entryDx=0;entryDy=0;" edge="1" parent="wtKoNSbRxSojZvVcUY4Y-1" source="wtKoNSbRxSojZvVcUY4Y-27" target="ODqfe2zKY3OkpeH0_JQV-1">
          <mxGeometry width="50" height="50" relative="1" as="geometry">
            <mxPoint x="789.6666666666665" y="190" as="sourcePoint" />
            <mxPoint x="1090" y="190" as="targetPoint" />
          </mxGeometry>
        </mxCell>
        <mxCell id="ODqfe2zKY3OkpeH0_JQV-4" value="READ_STCK_F" style="rounded=1;whiteSpace=wrap;html=1;fontSize=15;fillColor=#dae8fc;strokeColor=#6c8ebf;" vertex="1" parent="wtKoNSbRxSojZvVcUY4Y-1">
          <mxGeometry x="1320.33" y="320" width="120" height="40" as="geometry" />
        </mxCell>
        <mxCell id="ODqfe2zKY3OkpeH0_JQV-5" value="" style="endArrow=blockThin;html=1;fontSize=15;elbow=vertical;rounded=1;strokeWidth=1;arcSize=20;endFill=1;startArrow=oval;startFill=0;entryX=0;entryY=0.5;entryDx=0;entryDy=0;" edge="1" parent="wtKoNSbRxSojZvVcUY4Y-1" target="ODqfe2zKY3OkpeH0_JQV-4" source="wtKoNSbRxSojZvVcUY4Y-29">
          <mxGeometry width="50" height="50" relative="1" as="geometry">
            <mxPoint x="899.9966666666666" y="340" as="sourcePoint" />
            <mxPoint x="1210.33" y="270" as="targetPoint" />
          </mxGeometry>
        </mxCell>
        <mxCell id="ODqfe2zKY3OkpeH0_JQV-6" value="Val 2" style="shape=umlLifeline;perimeter=lifelinePerimeter;whiteSpace=wrap;html=1;container=1;collapsible=0;recursiveResize=0;outlineConnect=0;fontSize=15;size=40;" vertex="1" parent="wtKoNSbRxSojZvVcUY4Y-1">
          <mxGeometry x="1320" y="360" width="120" height="80" as="geometry" />
        </mxCell>
        <mxCell id="ODqfe2zKY3OkpeH0_JQV-7" value="Instr 3" style="rounded=1;whiteSpace=wrap;html=1;fontSize=15;fillColor=#dae8fc;strokeColor=#6c8ebf;" vertex="1" parent="wtKoNSbRxSojZvVcUY4Y-1">
          <mxGeometry x="1200" y="400" width="240" height="40" as="geometry" />
        </mxCell>
        <mxCell id="ODqfe2zKY3OkpeH0_JQV-8" value="Val 3" style="shape=umlLifeline;perimeter=lifelinePerimeter;whiteSpace=wrap;html=1;container=1;collapsible=0;recursiveResize=0;outlineConnect=0;fontSize=15;size=40;" vertex="1" parent="wtKoNSbRxSojZvVcUY4Y-1">
          <mxGeometry x="1200" y="440" width="120" height="80" as="geometry" />
        </mxCell>
        <mxCell id="ODqfe2zKY3OkpeH0_JQV-9" value="Instr 4" style="rounded=1;whiteSpace=wrap;html=1;fontSize=15;fillColor=#dae8fc;strokeColor=#6c8ebf;" vertex="1" parent="wtKoNSbRxSojZvVcUY4Y-1">
          <mxGeometry x="1080.33" y="480" width="240" height="40" as="geometry" />
        </mxCell>
        <mxCell id="ODqfe2zKY3OkpeH0_JQV-10" value="Val 4" style="shape=umlLifeline;perimeter=lifelinePerimeter;whiteSpace=wrap;html=1;container=1;collapsible=0;recursiveResize=0;outlineConnect=0;fontSize=15;size=40;" vertex="1" parent="wtKoNSbRxSojZvVcUY4Y-1">
          <mxGeometry x="1080" y="520" width="120" height="80" as="geometry" />
        </mxCell>
        <mxCell id="ODqfe2zKY3OkpeH0_JQV-11" value="&lt;font style=&quot;font-size: 15px;&quot;&gt;WRITE_STCK_F&lt;/font&gt;" style="rounded=1;whiteSpace=wrap;html=1;fontSize=15;fillColor=#dae8fc;strokeColor=#6c8ebf;" vertex="1" parent="wtKoNSbRxSojZvVcUY4Y-1">
          <mxGeometry x="840" y="560" width="120" height="40" as="geometry" />
        </mxCell>
        <mxCell id="ODqfe2zKY3OkpeH0_JQV-12" value="" style="endArrow=blockThin;html=1;fontSize=15;elbow=vertical;rounded=1;strokeWidth=1;arcSize=20;endFill=1;startArrow=oval;startFill=0;entryX=1;entryY=0.5;entryDx=0;entryDy=0;" edge="1" parent="wtKoNSbRxSojZvVcUY4Y-1" source="ODqfe2zKY3OkpeH0_JQV-10" target="ODqfe2zKY3OkpeH0_JQV-11">
          <mxGeometry width="50" height="50" relative="1" as="geometry">
            <mxPoint x="1350" y="600" as="sourcePoint" />
            <mxPoint x="1410.4199999999998" y="670" as="targetPoint" />
          </mxGeometry>
        </mxCell>
        <mxCell id="ODqfe2zKY3OkpeH0_JQV-13" value="Val 4" style="shape=umlLifeline;perimeter=lifelinePerimeter;whiteSpace=wrap;html=1;container=1;collapsible=0;recursiveResize=0;outlineConnect=0;fontSize=15;size=40;" vertex="1" parent="wtKoNSbRxSojZvVcUY4Y-1">
          <mxGeometry x="840" y="600" width="120" height="120" as="geometry" />
        </mxCell>
        <mxCell id="ODqfe2zKY3OkpeH0_JQV-17" value="return" style="rounded=0;whiteSpace=wrap;html=1;fontFamily=Helvetica;fontSize=15;fontColor=#000000;align=center;strokeColor=#9673a6;fillColor=#e1d5e7;" vertex="1" parent="ODqfe2zKY3OkpeH0_JQV-13">
          <mxGeometry x="-120" y="80" width="360" height="40" as="geometry" />
        </mxCell>
      </root>
    </mxGraphModel>
  </diagram>
  <diagram id="IBVtnNgVDN7_-mgB2M9S" name="Page-5">
    <mxGraphModel dx="5122" dy="1414" grid="1" gridSize="10" guides="1" tooltips="1" connect="1" arrows="1" fold="1" page="0" pageScale="1" pageWidth="1654" pageHeight="1169" math="0" shadow="0">
      <root>
        <mxCell id="Gjbpmm7I058mngas0lJp-0" />
        <mxCell id="Gjbpmm7I058mngas0lJp-1" parent="Gjbpmm7I058mngas0lJp-0" />
        <mxCell id="Gjbpmm7I058mngas0lJp-2" value="Val 1" style="shape=umlLifeline;perimeter=lifelinePerimeter;whiteSpace=wrap;html=1;container=1;collapsible=0;recursiveResize=0;outlineConnect=0;fontSize=15;size=40;" vertex="1" parent="Gjbpmm7I058mngas0lJp-1">
          <mxGeometry x="720" y="-40" width="120" height="760" as="geometry" />
        </mxCell>
        <mxCell id="Gjbpmm7I058mngas0lJp-3" value="Val x" style="shape=umlLifeline;perimeter=lifelinePerimeter;whiteSpace=wrap;html=1;container=1;collapsible=0;recursiveResize=0;outlineConnect=0;fontSize=15;size=40;" vertex="1" parent="Gjbpmm7I058mngas0lJp-1">
          <mxGeometry x="840" y="40" width="120" height="560" as="geometry" />
        </mxCell>
        <mxCell id="Gjbpmm7I058mngas0lJp-4" value="Val 2" style="shape=umlLifeline;perimeter=lifelinePerimeter;whiteSpace=wrap;html=1;container=1;collapsible=0;recursiveResize=0;outlineConnect=0;fontSize=15;size=40;" vertex="1" parent="Gjbpmm7I058mngas0lJp-1">
          <mxGeometry x="960" y="120" width="120" height="600" as="geometry" />
        </mxCell>
        <mxCell id="Gjbpmm7I058mngas0lJp-5" value="Val 1" style="shape=umlLifeline;perimeter=lifelinePerimeter;whiteSpace=wrap;html=1;container=1;collapsible=0;recursiveResize=0;outlineConnect=0;fontSize=15;size=40;" vertex="1" parent="Gjbpmm7I058mngas0lJp-1">
          <mxGeometry x="1080" y="200" width="120" height="320" as="geometry" />
        </mxCell>
        <mxCell id="Gjbpmm7I058mngas0lJp-6" value="Instr 2" style="rounded=1;whiteSpace=wrap;html=1;fontSize=15;fillColor=#dae8fc;strokeColor=#6c8ebf;" vertex="1" parent="Gjbpmm7I058mngas0lJp-1">
          <mxGeometry x="960" y="80" width="120" height="40" as="geometry" />
        </mxCell>
        <mxCell id="Gjbpmm7I058mngas0lJp-7" value="Instr 1" style="rounded=1;whiteSpace=wrap;html=1;fontSize=15;fillColor=#dae8fc;strokeColor=#6c8ebf;" vertex="1" parent="Gjbpmm7I058mngas0lJp-1">
          <mxGeometry x="720" y="-80" width="120" height="40" as="geometry" />
        </mxCell>
        <mxCell id="Gjbpmm7I058mngas0lJp-8" value="PUSH_INT" style="rounded=1;whiteSpace=wrap;html=1;fontSize=15;fillColor=#dae8fc;strokeColor=#6c8ebf;" vertex="1" parent="Gjbpmm7I058mngas0lJp-1">
          <mxGeometry x="840" width="120" height="40" as="geometry" />
        </mxCell>
        <mxCell id="Gjbpmm7I058mngas0lJp-9" value="READ_STCK_F" style="rounded=1;whiteSpace=wrap;html=1;fontSize=15;fillColor=#dae8fc;strokeColor=#6c8ebf;" vertex="1" parent="Gjbpmm7I058mngas0lJp-1">
          <mxGeometry x="1080" y="160" width="120" height="40" as="geometry" />
        </mxCell>
        <mxCell id="Gjbpmm7I058mngas0lJp-10" value="" style="endArrow=blockThin;html=1;fontSize=15;elbow=vertical;rounded=1;strokeWidth=1;arcSize=20;endFill=1;startArrow=oval;startFill=0;entryX=0;entryY=0.5;entryDx=0;entryDy=0;" edge="1" parent="Gjbpmm7I058mngas0lJp-1" source="Gjbpmm7I058mngas0lJp-2" target="Gjbpmm7I058mngas0lJp-9">
          <mxGeometry width="50" height="50" relative="1" as="geometry">
            <mxPoint x="860" y="179.99999999999977" as="sourcePoint" />
            <mxPoint x="1040.0588235294117" y="300" as="targetPoint" />
          </mxGeometry>
        </mxCell>
        <mxCell id="Gjbpmm7I058mngas0lJp-11" value="READ_STCK_F" style="rounded=1;whiteSpace=wrap;html=1;fontSize=15;fillColor=#dae8fc;strokeColor=#6c8ebf;" vertex="1" parent="Gjbpmm7I058mngas0lJp-1">
          <mxGeometry x="1200" y="240" width="120" height="40" as="geometry" />
        </mxCell>
        <mxCell id="Gjbpmm7I058mngas0lJp-12" value="Val 1" style="shape=umlLifeline;perimeter=lifelinePerimeter;whiteSpace=wrap;html=1;container=1;collapsible=0;recursiveResize=0;outlineConnect=0;fontSize=15;size=40;" vertex="1" parent="Gjbpmm7I058mngas0lJp-1">
          <mxGeometry x="1200" y="280" width="120" height="160" as="geometry" />
        </mxCell>
        <mxCell id="Gjbpmm7I058mngas0lJp-13" value="" style="endArrow=blockThin;html=1;fontSize=15;elbow=vertical;rounded=1;strokeWidth=1;arcSize=20;endFill=1;startArrow=oval;startFill=0;entryX=0;entryY=0.5;entryDx=0;entryDy=0;" edge="1" parent="Gjbpmm7I058mngas0lJp-1" source="Gjbpmm7I058mngas0lJp-2" target="Gjbpmm7I058mngas0lJp-11">
          <mxGeometry width="50" height="50" relative="1" as="geometry">
            <mxPoint x="789.6666666666665" y="190" as="sourcePoint" />
            <mxPoint x="1090" y="190" as="targetPoint" />
          </mxGeometry>
        </mxCell>
        <mxCell id="Gjbpmm7I058mngas0lJp-14" value="READ_STCK_F" style="rounded=1;whiteSpace=wrap;html=1;fontSize=15;fillColor=#dae8fc;strokeColor=#6c8ebf;" vertex="1" parent="Gjbpmm7I058mngas0lJp-1">
          <mxGeometry x="1320.33" y="320" width="120" height="40" as="geometry" />
        </mxCell>
        <mxCell id="Gjbpmm7I058mngas0lJp-15" value="" style="endArrow=blockThin;html=1;fontSize=15;elbow=vertical;rounded=1;strokeWidth=1;arcSize=20;endFill=1;startArrow=oval;startFill=0;entryX=0;entryY=0.5;entryDx=0;entryDy=0;" edge="1" parent="Gjbpmm7I058mngas0lJp-1" source="Gjbpmm7I058mngas0lJp-4" target="Gjbpmm7I058mngas0lJp-14">
          <mxGeometry width="50" height="50" relative="1" as="geometry">
            <mxPoint x="899.9966666666666" y="340" as="sourcePoint" />
            <mxPoint x="1210.33" y="270" as="targetPoint" />
          </mxGeometry>
        </mxCell>
        <mxCell id="Gjbpmm7I058mngas0lJp-16" value="Val 2" style="shape=umlLifeline;perimeter=lifelinePerimeter;whiteSpace=wrap;html=1;container=1;collapsible=0;recursiveResize=0;outlineConnect=0;fontSize=15;size=40;" vertex="1" parent="Gjbpmm7I058mngas0lJp-1">
          <mxGeometry x="1320" y="360" width="120" height="80" as="geometry" />
        </mxCell>
        <mxCell id="Gjbpmm7I058mngas0lJp-17" value="Instr 3" style="rounded=1;whiteSpace=wrap;html=1;fontSize=15;fillColor=#dae8fc;strokeColor=#6c8ebf;" vertex="1" parent="Gjbpmm7I058mngas0lJp-1">
          <mxGeometry x="1200" y="400" width="240" height="40" as="geometry" />
        </mxCell>
        <mxCell id="Gjbpmm7I058mngas0lJp-18" value="Val 3" style="shape=umlLifeline;perimeter=lifelinePerimeter;whiteSpace=wrap;html=1;container=1;collapsible=0;recursiveResize=0;outlineConnect=0;fontSize=15;size=40;" vertex="1" parent="Gjbpmm7I058mngas0lJp-1">
          <mxGeometry x="1200" y="440" width="120" height="80" as="geometry" />
        </mxCell>
        <mxCell id="Gjbpmm7I058mngas0lJp-19" value="Instr 4" style="rounded=1;whiteSpace=wrap;html=1;fontSize=15;fillColor=#dae8fc;strokeColor=#6c8ebf;" vertex="1" parent="Gjbpmm7I058mngas0lJp-1">
          <mxGeometry x="1080.33" y="480" width="240" height="40" as="geometry" />
        </mxCell>
        <mxCell id="Gjbpmm7I058mngas0lJp-20" value="Val 4" style="shape=umlLifeline;perimeter=lifelinePerimeter;whiteSpace=wrap;html=1;container=1;collapsible=0;recursiveResize=0;outlineConnect=0;fontSize=15;size=40;" vertex="1" parent="Gjbpmm7I058mngas0lJp-1">
          <mxGeometry x="1080" y="520" width="120" height="80" as="geometry" />
        </mxCell>
        <mxCell id="Gjbpmm7I058mngas0lJp-21" value="&lt;font style=&quot;font-size: 15px;&quot;&gt;WRITE_STCK_F&lt;/font&gt;" style="rounded=1;whiteSpace=wrap;html=1;fontSize=15;fillColor=#dae8fc;strokeColor=#6c8ebf;" vertex="1" parent="Gjbpmm7I058mngas0lJp-1">
          <mxGeometry x="840" y="560" width="120" height="40" as="geometry" />
        </mxCell>
        <mxCell id="Gjbpmm7I058mngas0lJp-22" value="" style="endArrow=blockThin;html=1;fontSize=15;elbow=vertical;rounded=1;strokeWidth=1;arcSize=20;endFill=1;startArrow=oval;startFill=0;entryX=1;entryY=0.5;entryDx=0;entryDy=0;" edge="1" parent="Gjbpmm7I058mngas0lJp-1" source="Gjbpmm7I058mngas0lJp-20" target="Gjbpmm7I058mngas0lJp-21">
          <mxGeometry width="50" height="50" relative="1" as="geometry">
            <mxPoint x="1350" y="600" as="sourcePoint" />
            <mxPoint x="1410.4199999999998" y="670" as="targetPoint" />
          </mxGeometry>
        </mxCell>
        <mxCell id="Gjbpmm7I058mngas0lJp-23" value="Val 4" style="shape=umlLifeline;perimeter=lifelinePerimeter;whiteSpace=wrap;html=1;container=1;collapsible=0;recursiveResize=0;outlineConnect=0;fontSize=15;size=40;" vertex="1" parent="Gjbpmm7I058mngas0lJp-1">
          <mxGeometry x="840" y="600" width="120" height="120" as="geometry" />
        </mxCell>
        <mxCell id="Gjbpmm7I058mngas0lJp-24" value="return" style="rounded=0;whiteSpace=wrap;html=1;fontFamily=Helvetica;fontSize=15;fontColor=#000000;align=center;strokeColor=#9673a6;fillColor=#e1d5e7;" vertex="1" parent="Gjbpmm7I058mngas0lJp-1">
          <mxGeometry x="720" y="680" width="360" height="40" as="geometry" />
        </mxCell>
        <mxCell id="Gjbpmm7I058mngas0lJp-25" value="Val 3" style="shape=umlLifeline;perimeter=lifelinePerimeter;whiteSpace=wrap;html=1;container=1;collapsible=0;recursiveResize=0;outlineConnect=0;fontSize=15;size=40;" vertex="1" parent="Gjbpmm7I058mngas0lJp-1">
          <mxGeometry x="80" y="280" width="120" height="440" as="geometry" />
        </mxCell>
        <mxCell id="Gjbpmm7I058mngas0lJp-26" value="Val 1" style="shape=umlLifeline;perimeter=lifelinePerimeter;whiteSpace=wrap;html=1;container=1;collapsible=0;recursiveResize=0;outlineConnect=0;fontSize=15;size=40;" vertex="1" parent="Gjbpmm7I058mngas0lJp-1">
          <mxGeometry x="-40" y="360" width="120" height="360" as="geometry" />
        </mxCell>
        <mxCell id="Gjbpmm7I058mngas0lJp-27" value="Val 2" style="shape=umlLifeline;perimeter=lifelinePerimeter;whiteSpace=wrap;html=1;container=1;collapsible=0;recursiveResize=0;outlineConnect=0;fontSize=15;size=40;" vertex="1" parent="Gjbpmm7I058mngas0lJp-1">
          <mxGeometry x="-160" y="-120" width="120" height="840" as="geometry" />
        </mxCell>
        <mxCell id="Gjbpmm7I058mngas0lJp-28" value="Val 4" style="shape=umlLifeline;perimeter=lifelinePerimeter;whiteSpace=wrap;html=1;container=1;collapsible=0;recursiveResize=0;outlineConnect=0;fontSize=15;size=40;" vertex="1" parent="Gjbpmm7I058mngas0lJp-1">
          <mxGeometry x="-280" y="120" width="120" height="600" as="geometry" />
        </mxCell>
        <mxCell id="Gjbpmm7I058mngas0lJp-29" value="return" style="rounded=0;whiteSpace=wrap;html=1;fontFamily=Helvetica;fontSize=15;fontColor=#000000;align=center;strokeColor=#9673a6;fillColor=#e1d5e7;" vertex="1" parent="Gjbpmm7I058mngas0lJp-1">
          <mxGeometry x="-280" y="680" width="480" height="40" as="geometry" />
        </mxCell>
        <mxCell id="Gjbpmm7I058mngas0lJp-31" value="Val 3" style="shape=umlLifeline;perimeter=lifelinePerimeter;whiteSpace=wrap;html=1;container=1;collapsible=0;recursiveResize=0;outlineConnect=0;fontSize=15;size=40;" vertex="1" parent="Gjbpmm7I058mngas0lJp-1">
          <mxGeometry x="-40" y="-120" width="120" height="440" as="geometry" />
        </mxCell>
        <mxCell id="Gjbpmm7I058mngas0lJp-32" value="Val 1" style="shape=umlLifeline;perimeter=lifelinePerimeter;whiteSpace=wrap;html=1;container=1;collapsible=0;recursiveResize=0;outlineConnect=0;fontSize=15;size=40;" vertex="1" parent="Gjbpmm7I058mngas0lJp-1">
          <mxGeometry x="-280" y="-120" width="120" height="200" as="geometry" />
        </mxCell>
        <mxCell id="Gjbpmm7I058mngas0lJp-34" value="Val 4" style="shape=umlLifeline;perimeter=lifelinePerimeter;whiteSpace=wrap;html=1;container=1;collapsible=0;recursiveResize=0;outlineConnect=0;fontSize=15;size=40;" vertex="1" parent="Gjbpmm7I058mngas0lJp-1">
          <mxGeometry x="80" y="-120" width="120" height="160" as="geometry" />
        </mxCell>
        <mxCell id="Gjbpmm7I058mngas0lJp-35" value="input" style="rounded=0;whiteSpace=wrap;html=1;fontFamily=Helvetica;fontSize=15;align=center;strokeColor=#d79b00;fillColor=#ffe6cc;" vertex="1" parent="Gjbpmm7I058mngas0lJp-1">
          <mxGeometry x="-280" y="-160" width="480" height="40" as="geometry" />
        </mxCell>
        <mxCell id="Gjbpmm7I058mngas0lJp-37" value="Val 1" style="shape=umlLifeline;perimeter=lifelinePerimeter;whiteSpace=wrap;html=1;container=1;collapsible=0;recursiveResize=0;outlineConnect=0;fontSize=15;size=40;" vertex="1" parent="Gjbpmm7I058mngas0lJp-1">
          <mxGeometry x="200" y="-40" width="120" height="80" as="geometry" />
        </mxCell>
        <mxCell id="Gjbpmm7I058mngas0lJp-38" value="READ_STCK_F" style="rounded=1;whiteSpace=wrap;html=1;fontSize=15;fillColor=#dae8fc;strokeColor=#6c8ebf;" vertex="1" parent="Gjbpmm7I058mngas0lJp-1">
          <mxGeometry x="200" y="-80" width="120" height="40" as="geometry" />
        </mxCell>
        <mxCell id="Gjbpmm7I058mngas0lJp-39" value="" style="endArrow=blockThin;html=1;fontSize=15;elbow=vertical;rounded=1;strokeWidth=1;arcSize=20;endFill=1;startArrow=oval;startFill=0;entryX=0;entryY=0.5;entryDx=0;entryDy=0;" edge="1" parent="Gjbpmm7I058mngas0lJp-1" target="Gjbpmm7I058mngas0lJp-38" source="Gjbpmm7I058mngas0lJp-32">
          <mxGeometry width="50" height="50" relative="1" as="geometry">
            <mxPoint x="-100.5" y="-60" as="sourcePoint" />
            <mxPoint x="160.0588235294117" y="60" as="targetPoint" />
          </mxGeometry>
        </mxCell>
        <mxCell id="Gjbpmm7I058mngas0lJp-40" value="&lt;font style=&quot;font-size: 15px;&quot;&gt;WRITE_STCK_F&lt;/font&gt;" style="rounded=1;whiteSpace=wrap;html=1;fontSize=15;fillColor=#dae8fc;strokeColor=#6c8ebf;" vertex="1" parent="Gjbpmm7I058mngas0lJp-1">
          <mxGeometry x="-280" y="80" width="120" height="40" as="geometry" />
        </mxCell>
        <mxCell id="Gjbpmm7I058mngas0lJp-41" value="" style="endArrow=blockThin;html=1;fontSize=15;elbow=vertical;rounded=1;strokeWidth=1;arcSize=20;endFill=1;startArrow=oval;startFill=0;entryX=1;entryY=0.5;entryDx=0;entryDy=0;" edge="1" parent="Gjbpmm7I058mngas0lJp-1" target="Gjbpmm7I058mngas0lJp-40" source="Gjbpmm7I058mngas0lJp-55">
          <mxGeometry width="50" height="50" relative="1" as="geometry">
            <mxPoint x="379.5" y="100" as="sourcePoint" />
            <mxPoint x="290.41999999999985" y="190" as="targetPoint" />
          </mxGeometry>
        </mxCell>
        <mxCell id="Gjbpmm7I058mngas0lJp-45" value="SWAP" style="rounded=1;whiteSpace=wrap;html=1;fontSize=15;fillColor=#dae8fc;strokeColor=#6c8ebf;" vertex="1" parent="Gjbpmm7I058mngas0lJp-1">
          <mxGeometry x="80" width="240" height="40" as="geometry" />
        </mxCell>
        <mxCell id="Gjbpmm7I058mngas0lJp-48" value="&lt;font style=&quot;font-size: 15px;&quot;&gt;WRITE_STCK_F&lt;/font&gt;" style="rounded=1;whiteSpace=wrap;html=1;fontSize=15;fillColor=#dae8fc;strokeColor=#6c8ebf;" vertex="1" parent="Gjbpmm7I058mngas0lJp-1">
          <mxGeometry x="-40" y="320" width="120" height="40" as="geometry" />
        </mxCell>
        <mxCell id="Gjbpmm7I058mngas0lJp-49" value="" style="endArrow=blockThin;html=1;fontSize=15;elbow=vertical;rounded=1;strokeWidth=1;arcSize=20;endFill=1;startArrow=oval;startFill=0;entryX=1;entryY=0.5;entryDx=0;entryDy=0;" edge="1" parent="Gjbpmm7I058mngas0lJp-1" target="Gjbpmm7I058mngas0lJp-48" source="Gjbpmm7I058mngas0lJp-54">
          <mxGeometry width="50" height="50" relative="1" as="geometry">
            <mxPoint x="210" y="380" as="sourcePoint" />
            <mxPoint x="530.4199999999998" y="270" as="targetPoint" />
          </mxGeometry>
        </mxCell>
        <mxCell id="Gjbpmm7I058mngas0lJp-50" value="READ_STCK_F" style="rounded=1;whiteSpace=wrap;html=1;fontSize=15;fillColor=#dae8fc;strokeColor=#6c8ebf;" vertex="1" parent="Gjbpmm7I058mngas0lJp-1">
          <mxGeometry x="200" y="160" width="120" height="40" as="geometry" />
        </mxCell>
        <mxCell id="Gjbpmm7I058mngas0lJp-51" value="" style="endArrow=blockThin;html=1;fontSize=15;elbow=vertical;rounded=1;strokeWidth=1;arcSize=20;endFill=1;startArrow=oval;startFill=0;entryX=0;entryY=0.5;entryDx=0;entryDy=0;" edge="1" parent="Gjbpmm7I058mngas0lJp-1" target="Gjbpmm7I058mngas0lJp-50" source="Gjbpmm7I058mngas0lJp-31">
          <mxGeometry width="50" height="50" relative="1" as="geometry">
            <mxPoint x="-220.5" y="180" as="sourcePoint" />
            <mxPoint x="160.0588235294117" y="300" as="targetPoint" />
          </mxGeometry>
        </mxCell>
        <mxCell id="Gjbpmm7I058mngas0lJp-52" value="Val 3" style="shape=umlLifeline;perimeter=lifelinePerimeter;whiteSpace=wrap;html=1;container=1;collapsible=0;recursiveResize=0;outlineConnect=0;fontSize=15;size=40;" vertex="1" parent="Gjbpmm7I058mngas0lJp-1">
          <mxGeometry x="200" y="200" width="120" height="80" as="geometry" />
        </mxCell>
        <mxCell id="Gjbpmm7I058mngas0lJp-54" value="Val 1" style="shape=umlLifeline;perimeter=lifelinePerimeter;whiteSpace=wrap;html=1;container=1;collapsible=0;recursiveResize=0;outlineConnect=0;fontSize=15;size=40;" vertex="1" parent="Gjbpmm7I058mngas0lJp-1">
          <mxGeometry x="200" y="280" width="120" height="80" as="geometry" />
        </mxCell>
        <mxCell id="Gjbpmm7I058mngas0lJp-55" value="Val 4" style="shape=umlLifeline;perimeter=lifelinePerimeter;whiteSpace=wrap;html=1;container=1;collapsible=0;recursiveResize=0;outlineConnect=0;fontSize=15;size=40;" vertex="1" parent="Gjbpmm7I058mngas0lJp-1">
          <mxGeometry x="200" y="40" width="120" height="80" as="geometry" />
        </mxCell>
        <mxCell id="Gjbpmm7I058mngas0lJp-56" value="SWAP" style="rounded=1;whiteSpace=wrap;html=1;fontSize=15;fillColor=#dae8fc;strokeColor=#6c8ebf;" vertex="1" parent="Gjbpmm7I058mngas0lJp-1">
          <mxGeometry x="80" y="240" width="240" height="40" as="geometry" />
        </mxCell>
        <mxCell id="Gjbpmm7I058mngas0lJp-58" value="Val 1" style="shape=umlLifeline;perimeter=lifelinePerimeter;whiteSpace=wrap;html=1;container=1;collapsible=0;recursiveResize=0;outlineConnect=0;fontSize=15;size=40;" vertex="1" parent="Gjbpmm7I058mngas0lJp-1">
          <mxGeometry x="80" y="40" width="120" height="240" as="geometry" />
        </mxCell>
        <mxCell id="Gjbpmm7I058mngas0lJp-60" value="Val 1" style="shape=umlLifeline;perimeter=lifelinePerimeter;whiteSpace=wrap;html=1;container=1;collapsible=0;recursiveResize=0;outlineConnect=0;fontSize=15;size=40;" vertex="1" parent="Gjbpmm7I058mngas0lJp-1">
          <mxGeometry x="-1080" y="360" width="120" height="360" as="geometry" />
        </mxCell>
        <mxCell id="Gjbpmm7I058mngas0lJp-61" value="Val 2" style="shape=umlLifeline;perimeter=lifelinePerimeter;whiteSpace=wrap;html=1;container=1;collapsible=0;recursiveResize=0;outlineConnect=0;fontSize=15;size=40;" vertex="1" parent="Gjbpmm7I058mngas0lJp-1">
          <mxGeometry x="-1080" y="-120" width="120" height="440" as="geometry" />
        </mxCell>
        <mxCell id="Gjbpmm7I058mngas0lJp-62" value="Val 3" style="shape=umlLifeline;perimeter=lifelinePerimeter;whiteSpace=wrap;html=1;container=1;collapsible=0;recursiveResize=0;outlineConnect=0;fontSize=15;size=40;" vertex="1" parent="Gjbpmm7I058mngas0lJp-1">
          <mxGeometry x="-1200" y="120" width="120" height="600" as="geometry" />
        </mxCell>
        <mxCell id="Gjbpmm7I058mngas0lJp-64" value="Val 3" style="shape=umlLifeline;perimeter=lifelinePerimeter;whiteSpace=wrap;html=1;container=1;collapsible=0;recursiveResize=0;outlineConnect=0;fontSize=15;size=40;" vertex="1" parent="Gjbpmm7I058mngas0lJp-1">
          <mxGeometry x="-960" y="-120" width="120" height="600" as="geometry" />
        </mxCell>
        <mxCell id="Gjbpmm7I058mngas0lJp-65" value="Val 1" style="shape=umlLifeline;perimeter=lifelinePerimeter;whiteSpace=wrap;html=1;container=1;collapsible=0;recursiveResize=0;outlineConnect=0;fontSize=15;size=40;" vertex="1" parent="Gjbpmm7I058mngas0lJp-1">
          <mxGeometry x="-1200" y="-120" width="120" height="200" as="geometry" />
        </mxCell>
        <mxCell id="Gjbpmm7I058mngas0lJp-66" value="Val 4" style="shape=umlLifeline;perimeter=lifelinePerimeter;whiteSpace=wrap;html=1;container=1;collapsible=0;recursiveResize=0;outlineConnect=0;fontSize=15;size=40;" vertex="1" parent="Gjbpmm7I058mngas0lJp-1">
          <mxGeometry x="-840" y="-120" width="120" height="560" as="geometry" />
        </mxCell>
        <mxCell id="Gjbpmm7I058mngas0lJp-67" value="input" style="rounded=0;whiteSpace=wrap;html=1;fontFamily=Helvetica;fontSize=15;align=center;strokeColor=#d79b00;fillColor=#ffe6cc;" vertex="1" parent="Gjbpmm7I058mngas0lJp-1">
          <mxGeometry x="-1200" y="-160" width="480" height="40" as="geometry" />
        </mxCell>
        <mxCell id="Gjbpmm7I058mngas0lJp-68" value="Val 1" style="shape=umlLifeline;perimeter=lifelinePerimeter;whiteSpace=wrap;html=1;container=1;collapsible=0;recursiveResize=0;outlineConnect=0;fontSize=15;size=40;" vertex="1" parent="Gjbpmm7I058mngas0lJp-1">
          <mxGeometry x="-720" y="-40" width="120" height="320" as="geometry" />
        </mxCell>
        <mxCell id="Gjbpmm7I058mngas0lJp-69" value="READ_STCK_F" style="rounded=1;whiteSpace=wrap;html=1;fontSize=15;fillColor=#dae8fc;strokeColor=#6c8ebf;" vertex="1" parent="Gjbpmm7I058mngas0lJp-1">
          <mxGeometry x="-720" y="-80" width="120" height="40" as="geometry" />
        </mxCell>
        <mxCell id="Gjbpmm7I058mngas0lJp-70" value="" style="endArrow=blockThin;html=1;fontSize=15;elbow=vertical;rounded=1;strokeWidth=1;arcSize=20;endFill=1;startArrow=oval;startFill=0;entryX=0;entryY=0.5;entryDx=0;entryDy=0;" edge="1" parent="Gjbpmm7I058mngas0lJp-1" source="Gjbpmm7I058mngas0lJp-65" target="Gjbpmm7I058mngas0lJp-69">
          <mxGeometry width="50" height="50" relative="1" as="geometry">
            <mxPoint x="-1020.5" y="-60" as="sourcePoint" />
            <mxPoint x="-759.9411764705883" y="60" as="targetPoint" />
          </mxGeometry>
        </mxCell>
        <mxCell id="Gjbpmm7I058mngas0lJp-71" value="&lt;font style=&quot;font-size: 15px;&quot;&gt;WRITE_STCK_F&lt;/font&gt;" style="rounded=1;whiteSpace=wrap;html=1;fontSize=15;fillColor=#dae8fc;strokeColor=#6c8ebf;" vertex="1" parent="Gjbpmm7I058mngas0lJp-1">
          <mxGeometry x="-1200" y="80" width="120" height="40" as="geometry" />
        </mxCell>
        <mxCell id="Gjbpmm7I058mngas0lJp-76" value="READ_STCK_F" style="rounded=1;whiteSpace=wrap;html=1;fontSize=15;fillColor=#dae8fc;strokeColor=#6c8ebf;" vertex="1" parent="Gjbpmm7I058mngas0lJp-1">
          <mxGeometry x="-600" y="160" width="120" height="40" as="geometry" />
        </mxCell>
        <mxCell id="Gjbpmm7I058mngas0lJp-77" value="" style="endArrow=blockThin;html=1;fontSize=15;elbow=vertical;rounded=1;strokeWidth=1;arcSize=20;endFill=1;startArrow=oval;startFill=0;entryX=0;entryY=0.5;entryDx=0;entryDy=0;" edge="1" parent="Gjbpmm7I058mngas0lJp-1" source="Gjbpmm7I058mngas0lJp-61" target="Gjbpmm7I058mngas0lJp-76">
          <mxGeometry width="50" height="50" relative="1" as="geometry">
            <mxPoint x="-1140.5" y="180" as="sourcePoint" />
            <mxPoint x="-759.9411764705883" y="300" as="targetPoint" />
          </mxGeometry>
        </mxCell>
        <mxCell id="Gjbpmm7I058mngas0lJp-80" value="Val 4" style="shape=umlLifeline;perimeter=lifelinePerimeter;whiteSpace=wrap;html=1;container=1;collapsible=0;recursiveResize=0;outlineConnect=0;fontSize=15;size=40;" vertex="1" parent="Gjbpmm7I058mngas0lJp-1">
          <mxGeometry x="-960" y="520" width="120" height="200" as="geometry" />
        </mxCell>
        <mxCell id="Gjbpmm7I058mngas0lJp-83" value="Val 2" style="shape=umlLifeline;perimeter=lifelinePerimeter;whiteSpace=wrap;html=1;container=1;collapsible=0;recursiveResize=0;outlineConnect=0;fontSize=15;size=40;" vertex="1" parent="Gjbpmm7I058mngas0lJp-1">
          <mxGeometry x="-840" y="440" width="120" height="280" as="geometry" />
        </mxCell>
        <mxCell id="Gjbpmm7I058mngas0lJp-63" value="return" style="rounded=0;whiteSpace=wrap;html=1;fontFamily=Helvetica;fontSize=15;fontColor=#000000;align=center;strokeColor=#9673a6;fillColor=#e1d5e7;" vertex="1" parent="Gjbpmm7I058mngas0lJp-1">
          <mxGeometry x="-1200" y="680" width="480" height="40" as="geometry" />
        </mxCell>
        <mxCell id="Gjbpmm7I058mngas0lJp-85" value="READ_STCK_F" style="rounded=1;whiteSpace=wrap;html=1;fontSize=15;fillColor=#dae8fc;strokeColor=#6c8ebf;" vertex="1" parent="Gjbpmm7I058mngas0lJp-1">
          <mxGeometry x="-600" width="120" height="40" as="geometry" />
        </mxCell>
        <mxCell id="Gjbpmm7I058mngas0lJp-86" value="Val 3" style="shape=umlLifeline;perimeter=lifelinePerimeter;whiteSpace=wrap;html=1;container=1;collapsible=0;recursiveResize=0;outlineConnect=0;fontSize=15;size=40;" vertex="1" parent="Gjbpmm7I058mngas0lJp-1">
          <mxGeometry x="-600" y="40" width="120" height="80" as="geometry" />
        </mxCell>
        <mxCell id="Gjbpmm7I058mngas0lJp-87" value="" style="endArrow=blockThin;html=1;fontSize=15;elbow=vertical;rounded=1;strokeWidth=1;arcSize=20;endFill=1;startArrow=oval;startFill=0;entryX=1;entryY=0.5;entryDx=0;entryDy=0;" edge="1" parent="Gjbpmm7I058mngas0lJp-1" source="Gjbpmm7I058mngas0lJp-86" target="Gjbpmm7I058mngas0lJp-71">
          <mxGeometry width="50" height="50" relative="1" as="geometry">
            <mxPoint x="-650.5" y="350" as="sourcePoint" />
            <mxPoint x="-830" y="350" as="targetPoint" />
          </mxGeometry>
        </mxCell>
        <mxCell id="Gjbpmm7I058mngas0lJp-89" value="Val 2" style="shape=umlLifeline;perimeter=lifelinePerimeter;whiteSpace=wrap;html=1;container=1;collapsible=0;recursiveResize=0;outlineConnect=0;fontSize=15;size=40;" vertex="1" parent="Gjbpmm7I058mngas0lJp-1">
          <mxGeometry x="-600" y="200" width="120" height="80" as="geometry" />
        </mxCell>
        <mxCell id="Gjbpmm7I058mngas0lJp-90" value="SWAP" style="rounded=1;whiteSpace=wrap;html=1;fontSize=15;fillColor=#dae8fc;strokeColor=#6c8ebf;" vertex="1" parent="Gjbpmm7I058mngas0lJp-1">
          <mxGeometry x="-720" y="240" width="240" height="40" as="geometry" />
        </mxCell>
        <mxCell id="Gjbpmm7I058mngas0lJp-91" value="Val 2" style="shape=umlLifeline;perimeter=lifelinePerimeter;whiteSpace=wrap;html=1;container=1;collapsible=0;recursiveResize=0;outlineConnect=0;fontSize=15;size=40;" vertex="1" parent="Gjbpmm7I058mngas0lJp-1">
          <mxGeometry x="-720" y="280" width="120" height="160" as="geometry" />
        </mxCell>
        <mxCell id="Gjbpmm7I058mngas0lJp-92" value="Val 1" style="shape=umlLifeline;perimeter=lifelinePerimeter;whiteSpace=wrap;html=1;container=1;collapsible=0;recursiveResize=0;outlineConnect=0;fontSize=15;size=40;" vertex="1" parent="Gjbpmm7I058mngas0lJp-1">
          <mxGeometry x="-600" y="280" width="120" height="80" as="geometry" />
        </mxCell>
        <mxCell id="Gjbpmm7I058mngas0lJp-93" value="&lt;font style=&quot;font-size: 15px;&quot;&gt;WRITE_STCK_F&lt;/font&gt;" style="rounded=1;whiteSpace=wrap;html=1;fontSize=15;fillColor=#dae8fc;strokeColor=#6c8ebf;" vertex="1" parent="Gjbpmm7I058mngas0lJp-1">
          <mxGeometry x="-1080" y="320" width="120" height="40" as="geometry" />
        </mxCell>
        <mxCell id="Gjbpmm7I058mngas0lJp-94" value="" style="endArrow=blockThin;html=1;fontSize=15;elbow=vertical;rounded=1;strokeWidth=1;arcSize=20;endFill=1;startArrow=oval;startFill=0;entryX=1;entryY=0.5;entryDx=0;entryDy=0;" edge="1" parent="Gjbpmm7I058mngas0lJp-1" target="Gjbpmm7I058mngas0lJp-93" source="Gjbpmm7I058mngas0lJp-92">
          <mxGeometry width="50" height="50" relative="1" as="geometry">
            <mxPoint x="-420.5" y="380" as="sourcePoint" />
            <mxPoint x="-710" y="630" as="targetPoint" />
          </mxGeometry>
        </mxCell>
        <mxCell id="Gjbpmm7I058mngas0lJp-95" value="SWAP" style="rounded=1;whiteSpace=wrap;html=1;fontSize=15;fillColor=#dae8fc;strokeColor=#6c8ebf;" vertex="1" parent="Gjbpmm7I058mngas0lJp-1">
          <mxGeometry x="-840" y="400" width="240" height="40" as="geometry" />
        </mxCell>
        <mxCell id="Gjbpmm7I058mngas0lJp-96" value="Val 4" style="shape=umlLifeline;perimeter=lifelinePerimeter;whiteSpace=wrap;html=1;container=1;collapsible=0;recursiveResize=0;outlineConnect=0;fontSize=15;size=40;" vertex="1" parent="Gjbpmm7I058mngas0lJp-1">
          <mxGeometry x="-720" y="440" width="120" height="80" as="geometry" />
        </mxCell>
        <mxCell id="Gjbpmm7I058mngas0lJp-97" value="&lt;font style=&quot;font-size: 15px;&quot;&gt;WRITE_STCK_F&lt;/font&gt;" style="rounded=1;whiteSpace=wrap;html=1;fontSize=15;fillColor=#dae8fc;strokeColor=#6c8ebf;" vertex="1" parent="Gjbpmm7I058mngas0lJp-1">
          <mxGeometry x="-960" y="480" width="120" height="40" as="geometry" />
        </mxCell>
        <mxCell id="Gjbpmm7I058mngas0lJp-98" value="" style="endArrow=blockThin;html=1;fontSize=15;elbow=vertical;rounded=1;strokeWidth=1;arcSize=20;endFill=1;startArrow=oval;startFill=0;entryX=1;entryY=0.5;entryDx=0;entryDy=0;" edge="1" parent="Gjbpmm7I058mngas0lJp-1" target="Gjbpmm7I058mngas0lJp-97" source="Gjbpmm7I058mngas0lJp-96">
          <mxGeometry width="50" height="50" relative="1" as="geometry">
            <mxPoint x="-420.5" y="500" as="sourcePoint" />
            <mxPoint x="-590" y="790" as="targetPoint" />
          </mxGeometry>
        </mxCell>
        <mxCell id="Gjbpmm7I058mngas0lJp-99" value="Val 1" style="shape=umlLifeline;perimeter=lifelinePerimeter;whiteSpace=wrap;html=1;container=1;collapsible=0;recursiveResize=0;outlineConnect=0;fontSize=15;size=40;" vertex="1" parent="Gjbpmm7I058mngas0lJp-1">
          <mxGeometry x="1920" y="120" width="120" height="320" as="geometry" />
        </mxCell>
        <mxCell id="Gjbpmm7I058mngas0lJp-100" value="Val x" style="shape=umlLifeline;perimeter=lifelinePerimeter;whiteSpace=wrap;html=1;container=1;collapsible=0;recursiveResize=0;outlineConnect=0;fontSize=15;size=40;participant=none;" vertex="1" parent="Gjbpmm7I058mngas0lJp-1">
          <mxGeometry x="1680" y="-40" width="120" height="560" as="geometry" />
        </mxCell>
        <mxCell id="Gjbpmm7I058mngas0lJp-101" value="Val 2" style="shape=umlLifeline;perimeter=lifelinePerimeter;whiteSpace=wrap;html=1;container=1;collapsible=0;recursiveResize=0;outlineConnect=0;fontSize=15;size=40;" vertex="1" parent="Gjbpmm7I058mngas0lJp-1">
          <mxGeometry x="1800" y="40" width="120" height="600" as="geometry" />
        </mxCell>
        <mxCell id="Gjbpmm7I058mngas0lJp-102" value="Val 1" style="shape=umlLifeline;perimeter=lifelinePerimeter;whiteSpace=wrap;html=1;container=1;collapsible=0;recursiveResize=0;outlineConnect=0;fontSize=15;size=40;" vertex="1" parent="Gjbpmm7I058mngas0lJp-1">
          <mxGeometry x="2040" y="200" width="120" height="160" as="geometry" />
        </mxCell>
        <mxCell id="Gjbpmm7I058mngas0lJp-103" value="Instr 2" style="rounded=1;whiteSpace=wrap;html=1;fontSize=15;fillColor=#dae8fc;strokeColor=#6c8ebf;" vertex="1" parent="Gjbpmm7I058mngas0lJp-1">
          <mxGeometry x="1800" width="120" height="40" as="geometry" />
        </mxCell>
        <mxCell id="Gjbpmm7I058mngas0lJp-104" value="Instr 1" style="rounded=1;whiteSpace=wrap;html=1;fontSize=15;fillColor=#dae8fc;strokeColor=#6c8ebf;" vertex="1" parent="Gjbpmm7I058mngas0lJp-1">
          <mxGeometry x="1920" y="80" width="120" height="40" as="geometry" />
        </mxCell>
        <mxCell id="Gjbpmm7I058mngas0lJp-105" value="PUSH_INT" style="rounded=1;whiteSpace=wrap;html=1;fontSize=15;fillColor=#dae8fc;strokeColor=#6c8ebf;" vertex="1" parent="Gjbpmm7I058mngas0lJp-1">
          <mxGeometry x="1680" y="-80" width="120" height="40" as="geometry" />
        </mxCell>
        <mxCell id="Gjbpmm7I058mngas0lJp-106" value="READ_STCK_F" style="rounded=1;whiteSpace=wrap;html=1;fontSize=15;fillColor=#dae8fc;strokeColor=#6c8ebf;" vertex="1" parent="Gjbpmm7I058mngas0lJp-1">
          <mxGeometry x="2040" y="160" width="120" height="40" as="geometry" />
        </mxCell>
        <mxCell id="Gjbpmm7I058mngas0lJp-107" value="" style="endArrow=blockThin;html=1;fontSize=15;elbow=vertical;rounded=1;strokeWidth=1;arcSize=20;endFill=1;startArrow=oval;startFill=0;entryX=0;entryY=0.5;entryDx=0;entryDy=0;" edge="1" parent="Gjbpmm7I058mngas0lJp-1" source="Gjbpmm7I058mngas0lJp-99" target="Gjbpmm7I058mngas0lJp-106">
          <mxGeometry width="50" height="50" relative="1" as="geometry">
            <mxPoint x="1700" y="179.99999999999977" as="sourcePoint" />
            <mxPoint x="1880.0588235294117" y="300" as="targetPoint" />
          </mxGeometry>
        </mxCell>
        <mxCell id="Gjbpmm7I058mngas0lJp-111" value="READ_STCK_F" style="rounded=1;whiteSpace=wrap;html=1;fontSize=15;fillColor=#dae8fc;strokeColor=#6c8ebf;" vertex="1" parent="Gjbpmm7I058mngas0lJp-1">
          <mxGeometry x="2160.33" y="240" width="120" height="40" as="geometry" />
        </mxCell>
        <mxCell id="Gjbpmm7I058mngas0lJp-112" value="" style="endArrow=blockThin;html=1;fontSize=15;elbow=vertical;rounded=1;strokeWidth=1;arcSize=20;endFill=1;startArrow=oval;startFill=0;entryX=0;entryY=0.5;entryDx=0;entryDy=0;" edge="1" parent="Gjbpmm7I058mngas0lJp-1" source="Gjbpmm7I058mngas0lJp-101" target="Gjbpmm7I058mngas0lJp-111">
          <mxGeometry width="50" height="50" relative="1" as="geometry">
            <mxPoint x="1739.9966666666664" y="340" as="sourcePoint" />
            <mxPoint x="2050.33" y="270" as="targetPoint" />
          </mxGeometry>
        </mxCell>
        <mxCell id="Gjbpmm7I058mngas0lJp-113" value="Val 2" style="shape=umlLifeline;perimeter=lifelinePerimeter;whiteSpace=wrap;html=1;container=1;collapsible=0;recursiveResize=0;outlineConnect=0;fontSize=15;size=40;" vertex="1" parent="Gjbpmm7I058mngas0lJp-1">
          <mxGeometry x="2160" y="280" width="120" height="80" as="geometry" />
        </mxCell>
        <mxCell id="Gjbpmm7I058mngas0lJp-114" value="Instr 3" style="rounded=1;whiteSpace=wrap;html=1;fontSize=15;fillColor=#dae8fc;strokeColor=#6c8ebf;" vertex="1" parent="Gjbpmm7I058mngas0lJp-1">
          <mxGeometry x="2040" y="320" width="240" height="40" as="geometry" />
        </mxCell>
        <mxCell id="Gjbpmm7I058mngas0lJp-115" value="Val 3" style="shape=umlLifeline;perimeter=lifelinePerimeter;whiteSpace=wrap;html=1;container=1;collapsible=0;recursiveResize=0;outlineConnect=0;fontSize=15;size=40;" vertex="1" parent="Gjbpmm7I058mngas0lJp-1">
          <mxGeometry x="2040" y="360" width="120" height="80" as="geometry" />
        </mxCell>
        <mxCell id="Gjbpmm7I058mngas0lJp-116" value="Instr 4" style="rounded=1;whiteSpace=wrap;html=1;fontSize=15;fillColor=#dae8fc;strokeColor=#6c8ebf;" vertex="1" parent="Gjbpmm7I058mngas0lJp-1">
          <mxGeometry x="1920.33" y="400" width="240" height="40" as="geometry" />
        </mxCell>
        <mxCell id="Gjbpmm7I058mngas0lJp-117" value="Val 4" style="shape=umlLifeline;perimeter=lifelinePerimeter;whiteSpace=wrap;html=1;container=1;collapsible=0;recursiveResize=0;outlineConnect=0;fontSize=15;size=40;" vertex="1" parent="Gjbpmm7I058mngas0lJp-1">
          <mxGeometry x="1920" y="440" width="120" height="80" as="geometry" />
        </mxCell>
        <mxCell id="Gjbpmm7I058mngas0lJp-118" value="&lt;font style=&quot;font-size: 15px;&quot;&gt;WRITE_STCK_F&lt;/font&gt;" style="rounded=1;whiteSpace=wrap;html=1;fontSize=15;fillColor=#dae8fc;strokeColor=#6c8ebf;" vertex="1" parent="Gjbpmm7I058mngas0lJp-1">
          <mxGeometry x="1680" y="480" width="120" height="40" as="geometry" />
        </mxCell>
        <mxCell id="Gjbpmm7I058mngas0lJp-119" value="" style="endArrow=blockThin;html=1;fontSize=15;elbow=vertical;rounded=1;strokeWidth=1;arcSize=20;endFill=1;startArrow=oval;startFill=0;entryX=1;entryY=0.5;entryDx=0;entryDy=0;" edge="1" parent="Gjbpmm7I058mngas0lJp-1" source="Gjbpmm7I058mngas0lJp-117" target="Gjbpmm7I058mngas0lJp-118">
          <mxGeometry width="50" height="50" relative="1" as="geometry">
            <mxPoint x="2190" y="600" as="sourcePoint" />
            <mxPoint x="2250.42" y="670" as="targetPoint" />
          </mxGeometry>
        </mxCell>
        <mxCell id="Gjbpmm7I058mngas0lJp-120" value="Val 4" style="shape=umlLifeline;perimeter=lifelinePerimeter;whiteSpace=wrap;html=1;container=1;collapsible=0;recursiveResize=0;outlineConnect=0;fontSize=15;size=40;" vertex="1" parent="Gjbpmm7I058mngas0lJp-1">
          <mxGeometry x="1680" y="520" width="120" height="120" as="geometry" />
        </mxCell>
        <mxCell id="Gjbpmm7I058mngas0lJp-121" value="return" style="rounded=0;whiteSpace=wrap;html=1;fontFamily=Helvetica;fontSize=15;fontColor=#000000;align=center;strokeColor=#9673a6;fillColor=#e1d5e7;" vertex="1" parent="Gjbpmm7I058mngas0lJp-1">
          <mxGeometry x="1680" y="600" width="240" height="40" as="geometry" />
        </mxCell>
        <mxCell id="Gjbpmm7I058mngas0lJp-136" value="Val 5" style="shape=umlLifeline;perimeter=lifelinePerimeter;whiteSpace=wrap;html=1;container=1;collapsible=0;recursiveResize=0;outlineConnect=0;fontSize=15;size=40;" vertex="1" parent="Gjbpmm7I058mngas0lJp-1">
          <mxGeometry x="-2080" y="600" width="120" height="120" as="geometry" />
        </mxCell>
        <mxCell id="Gjbpmm7I058mngas0lJp-137" value="Val 2" style="shape=umlLifeline;perimeter=lifelinePerimeter;whiteSpace=wrap;html=1;container=1;collapsible=0;recursiveResize=0;outlineConnect=0;fontSize=15;size=40;" vertex="1" parent="Gjbpmm7I058mngas0lJp-1">
          <mxGeometry x="-2080" y="-120" width="120" height="440" as="geometry" />
        </mxCell>
        <mxCell id="Gjbpmm7I058mngas0lJp-138" value="Val 3" style="shape=umlLifeline;perimeter=lifelinePerimeter;whiteSpace=wrap;html=1;container=1;collapsible=0;recursiveResize=0;outlineConnect=0;fontSize=15;size=40;" vertex="1" parent="Gjbpmm7I058mngas0lJp-1">
          <mxGeometry x="-2200" y="120" width="120" height="600" as="geometry" />
        </mxCell>
        <mxCell id="Gjbpmm7I058mngas0lJp-139" value="Val 3" style="shape=umlLifeline;perimeter=lifelinePerimeter;whiteSpace=wrap;html=1;container=1;collapsible=0;recursiveResize=0;outlineConnect=0;fontSize=15;size=40;" vertex="1" parent="Gjbpmm7I058mngas0lJp-1">
          <mxGeometry x="-1960" y="-120" width="120" height="600" as="geometry" />
        </mxCell>
        <mxCell id="Gjbpmm7I058mngas0lJp-140" value="Val 1" style="shape=umlLifeline;perimeter=lifelinePerimeter;whiteSpace=wrap;html=1;container=1;collapsible=0;recursiveResize=0;outlineConnect=0;fontSize=15;size=40;" vertex="1" parent="Gjbpmm7I058mngas0lJp-1">
          <mxGeometry x="-2200" y="-120" width="120" height="200" as="geometry" />
        </mxCell>
        <mxCell id="Gjbpmm7I058mngas0lJp-141" value="Val 4" style="shape=umlLifeline;perimeter=lifelinePerimeter;whiteSpace=wrap;html=1;container=1;collapsible=0;recursiveResize=0;outlineConnect=0;fontSize=15;size=40;" vertex="1" parent="Gjbpmm7I058mngas0lJp-1">
          <mxGeometry x="-1840" y="-120" width="120" height="560" as="geometry" />
        </mxCell>
        <mxCell id="Gjbpmm7I058mngas0lJp-142" value="input" style="rounded=0;whiteSpace=wrap;html=1;fontFamily=Helvetica;fontSize=15;align=center;strokeColor=#d79b00;fillColor=#ffe6cc;" vertex="1" parent="Gjbpmm7I058mngas0lJp-1">
          <mxGeometry x="-2200" y="-160" width="480" height="40" as="geometry" />
        </mxCell>
        <mxCell id="Gjbpmm7I058mngas0lJp-143" value="Val 1" style="shape=umlLifeline;perimeter=lifelinePerimeter;whiteSpace=wrap;html=1;container=1;collapsible=0;recursiveResize=0;outlineConnect=0;fontSize=15;size=40;" vertex="1" parent="Gjbpmm7I058mngas0lJp-1">
          <mxGeometry x="-1720" y="-40" width="120" height="320" as="geometry" />
        </mxCell>
        <mxCell id="Gjbpmm7I058mngas0lJp-144" value="READ_STCK_F" style="rounded=1;whiteSpace=wrap;html=1;fontSize=15;fillColor=#dae8fc;strokeColor=#6c8ebf;" vertex="1" parent="Gjbpmm7I058mngas0lJp-1">
          <mxGeometry x="-1720" y="-80" width="120" height="40" as="geometry" />
        </mxCell>
        <mxCell id="Gjbpmm7I058mngas0lJp-145" value="" style="endArrow=blockThin;html=1;fontSize=15;elbow=vertical;rounded=1;strokeWidth=1;arcSize=20;endFill=1;startArrow=oval;startFill=0;entryX=0;entryY=0.5;entryDx=0;entryDy=0;" edge="1" parent="Gjbpmm7I058mngas0lJp-1" source="Gjbpmm7I058mngas0lJp-140" target="Gjbpmm7I058mngas0lJp-144">
          <mxGeometry width="50" height="50" relative="1" as="geometry">
            <mxPoint x="-2020.5" y="-60" as="sourcePoint" />
            <mxPoint x="-1759.9411764705883" y="60" as="targetPoint" />
          </mxGeometry>
        </mxCell>
        <mxCell id="Gjbpmm7I058mngas0lJp-146" value="&lt;font style=&quot;font-size: 15px;&quot;&gt;WRITE_STCK_F&lt;/font&gt;" style="rounded=1;whiteSpace=wrap;html=1;fontSize=15;fillColor=#dae8fc;strokeColor=#6c8ebf;" vertex="1" parent="Gjbpmm7I058mngas0lJp-1">
          <mxGeometry x="-2200" y="80" width="120" height="40" as="geometry" />
        </mxCell>
        <mxCell id="Gjbpmm7I058mngas0lJp-147" value="READ_STCK_F" style="rounded=1;whiteSpace=wrap;html=1;fontSize=15;fillColor=#dae8fc;strokeColor=#6c8ebf;" vertex="1" parent="Gjbpmm7I058mngas0lJp-1">
          <mxGeometry x="-1600" y="160" width="120" height="40" as="geometry" />
        </mxCell>
        <mxCell id="Gjbpmm7I058mngas0lJp-148" value="" style="endArrow=blockThin;html=1;fontSize=15;elbow=vertical;rounded=1;strokeWidth=1;arcSize=20;endFill=1;startArrow=oval;startFill=0;entryX=0;entryY=0.5;entryDx=0;entryDy=0;" edge="1" parent="Gjbpmm7I058mngas0lJp-1" source="Gjbpmm7I058mngas0lJp-137" target="Gjbpmm7I058mngas0lJp-147">
          <mxGeometry width="50" height="50" relative="1" as="geometry">
            <mxPoint x="-2140.5" y="180" as="sourcePoint" />
            <mxPoint x="-1759.9411764705883" y="300" as="targetPoint" />
          </mxGeometry>
        </mxCell>
        <mxCell id="Gjbpmm7I058mngas0lJp-149" value="Val 6" style="shape=umlLifeline;perimeter=lifelinePerimeter;whiteSpace=wrap;html=1;container=1;collapsible=0;recursiveResize=0;outlineConnect=0;fontSize=15;size=40;" vertex="1" parent="Gjbpmm7I058mngas0lJp-1">
          <mxGeometry x="-1960" y="600" width="120" height="120" as="geometry" />
        </mxCell>
        <mxCell id="Gjbpmm7I058mngas0lJp-150" value="Val 1*" style="shape=umlLifeline;perimeter=lifelinePerimeter;whiteSpace=wrap;html=1;container=1;collapsible=0;recursiveResize=0;outlineConnect=0;fontSize=15;size=40;" vertex="1" parent="Gjbpmm7I058mngas0lJp-1">
          <mxGeometry x="-1840" y="600" width="120" height="120" as="geometry" />
        </mxCell>
        <mxCell id="Gjbpmm7I058mngas0lJp-151" value="return" style="rounded=0;whiteSpace=wrap;html=1;fontFamily=Helvetica;fontSize=15;fontColor=#000000;align=center;strokeColor=#9673a6;fillColor=#e1d5e7;" vertex="1" parent="Gjbpmm7I058mngas0lJp-1">
          <mxGeometry x="-2200" y="680" width="480" height="40" as="geometry" />
        </mxCell>
        <mxCell id="Gjbpmm7I058mngas0lJp-152" value="READ_STCK_F" style="rounded=1;whiteSpace=wrap;html=1;fontSize=15;fillColor=#dae8fc;strokeColor=#6c8ebf;" vertex="1" parent="Gjbpmm7I058mngas0lJp-1">
          <mxGeometry x="-1600" width="120" height="40" as="geometry" />
        </mxCell>
        <mxCell id="Gjbpmm7I058mngas0lJp-153" value="Val 3" style="shape=umlLifeline;perimeter=lifelinePerimeter;whiteSpace=wrap;html=1;container=1;collapsible=0;recursiveResize=0;outlineConnect=0;fontSize=15;size=40;" vertex="1" parent="Gjbpmm7I058mngas0lJp-1">
          <mxGeometry x="-1600" y="40" width="120" height="80" as="geometry" />
        </mxCell>
        <mxCell id="Gjbpmm7I058mngas0lJp-154" value="" style="endArrow=blockThin;html=1;fontSize=15;elbow=vertical;rounded=1;strokeWidth=1;arcSize=20;endFill=1;startArrow=oval;startFill=0;entryX=1;entryY=0.5;entryDx=0;entryDy=0;" edge="1" parent="Gjbpmm7I058mngas0lJp-1" source="Gjbpmm7I058mngas0lJp-153" target="Gjbpmm7I058mngas0lJp-146">
          <mxGeometry width="50" height="50" relative="1" as="geometry">
            <mxPoint x="-1650.5" y="350" as="sourcePoint" />
            <mxPoint x="-1830" y="350" as="targetPoint" />
          </mxGeometry>
        </mxCell>
        <mxCell id="Gjbpmm7I058mngas0lJp-155" value="Val 2" style="shape=umlLifeline;perimeter=lifelinePerimeter;whiteSpace=wrap;html=1;container=1;collapsible=0;recursiveResize=0;outlineConnect=0;fontSize=15;size=40;" vertex="1" parent="Gjbpmm7I058mngas0lJp-1">
          <mxGeometry x="-1600" y="200" width="120" height="80" as="geometry" />
        </mxCell>
        <mxCell id="Gjbpmm7I058mngas0lJp-156" value="SWAP" style="rounded=1;whiteSpace=wrap;html=1;fontSize=15;fillColor=#dae8fc;strokeColor=#6c8ebf;" vertex="1" parent="Gjbpmm7I058mngas0lJp-1">
          <mxGeometry x="-1720" y="240" width="240" height="40" as="geometry" />
        </mxCell>
        <mxCell id="Gjbpmm7I058mngas0lJp-157" value="Val 2" style="shape=umlLifeline;perimeter=lifelinePerimeter;whiteSpace=wrap;html=1;container=1;collapsible=0;recursiveResize=0;outlineConnect=0;fontSize=15;size=40;" vertex="1" parent="Gjbpmm7I058mngas0lJp-1">
          <mxGeometry x="-1720" y="280" width="120" height="160" as="geometry" />
        </mxCell>
        <mxCell id="Gjbpmm7I058mngas0lJp-158" value="Val 1" style="shape=umlLifeline;perimeter=lifelinePerimeter;whiteSpace=wrap;html=1;container=1;collapsible=0;recursiveResize=0;outlineConnect=0;fontSize=15;size=40;" vertex="1" parent="Gjbpmm7I058mngas0lJp-1">
          <mxGeometry x="-1600" y="280" width="120" height="80" as="geometry" />
        </mxCell>
        <mxCell id="Gjbpmm7I058mngas0lJp-159" value="&lt;font style=&quot;font-size: 15px;&quot;&gt;WRITE_STCK_F&lt;/font&gt;" style="rounded=1;whiteSpace=wrap;html=1;fontSize=15;fillColor=#dae8fc;strokeColor=#6c8ebf;" vertex="1" parent="Gjbpmm7I058mngas0lJp-1">
          <mxGeometry x="-2080" y="320" width="120" height="40" as="geometry" />
        </mxCell>
        <mxCell id="Gjbpmm7I058mngas0lJp-160" value="" style="endArrow=blockThin;html=1;fontSize=15;elbow=vertical;rounded=1;strokeWidth=1;arcSize=20;endFill=1;startArrow=oval;startFill=0;entryX=1;entryY=0.5;entryDx=0;entryDy=0;" edge="1" parent="Gjbpmm7I058mngas0lJp-1" source="Gjbpmm7I058mngas0lJp-158" target="Gjbpmm7I058mngas0lJp-159">
          <mxGeometry width="50" height="50" relative="1" as="geometry">
            <mxPoint x="-1420.5" y="380" as="sourcePoint" />
            <mxPoint x="-1710" y="630" as="targetPoint" />
          </mxGeometry>
        </mxCell>
        <mxCell id="Gjbpmm7I058mngas0lJp-161" value="SWAP" style="rounded=1;whiteSpace=wrap;html=1;fontSize=15;fillColor=#dae8fc;strokeColor=#6c8ebf;" vertex="1" parent="Gjbpmm7I058mngas0lJp-1">
          <mxGeometry x="-1840" y="400" width="240" height="40" as="geometry" />
        </mxCell>
        <mxCell id="Gjbpmm7I058mngas0lJp-162" value="Val 4" style="shape=umlLifeline;perimeter=lifelinePerimeter;whiteSpace=wrap;html=1;container=1;collapsible=0;recursiveResize=0;outlineConnect=0;fontSize=15;size=40;" vertex="1" parent="Gjbpmm7I058mngas0lJp-1">
          <mxGeometry x="-1720" y="440" width="120" height="80" as="geometry" />
        </mxCell>
        <mxCell id="Gjbpmm7I058mngas0lJp-163" value="&lt;font style=&quot;font-size: 15px;&quot;&gt;WRITE_STCK_F&lt;/font&gt;" style="rounded=1;whiteSpace=wrap;html=1;fontSize=15;fillColor=#dae8fc;strokeColor=#6c8ebf;" vertex="1" parent="Gjbpmm7I058mngas0lJp-1">
          <mxGeometry x="-1960" y="480" width="120" height="40" as="geometry" />
        </mxCell>
        <mxCell id="Gjbpmm7I058mngas0lJp-164" value="" style="endArrow=blockThin;html=1;fontSize=15;elbow=vertical;rounded=1;strokeWidth=1;arcSize=20;endFill=1;startArrow=oval;startFill=0;entryX=1;entryY=0.5;entryDx=0;entryDy=0;" edge="1" parent="Gjbpmm7I058mngas0lJp-1" source="Gjbpmm7I058mngas0lJp-162" target="Gjbpmm7I058mngas0lJp-163">
          <mxGeometry width="50" height="50" relative="1" as="geometry">
            <mxPoint x="-1420.5" y="500" as="sourcePoint" />
            <mxPoint x="-1590" y="790" as="targetPoint" />
          </mxGeometry>
        </mxCell>
        <mxCell id="mrHgx6ij_YpXuuBXTZkh-25" value="Instr 1" style="rounded=1;whiteSpace=wrap;html=1;fontSize=15;fillColor=#dae8fc;strokeColor=#6c8ebf;" vertex="1" parent="Gjbpmm7I058mngas0lJp-1">
          <mxGeometry x="-2600" y="-200" width="160" height="40" as="geometry" />
        </mxCell>
        <mxCell id="mrHgx6ij_YpXuuBXTZkh-26" value="Val 1*" style="ellipse;whiteSpace=wrap;html=1;fontSize=15;fillColor=#f5f5f5;strokeColor=#666666;fontColor=#333333;" vertex="1" parent="Gjbpmm7I058mngas0lJp-1">
          <mxGeometry x="-2840" y="-120" width="80" height="40" as="geometry" />
        </mxCell>
        <mxCell id="mrHgx6ij_YpXuuBXTZkh-27" value="Instr 2" style="rounded=1;whiteSpace=wrap;html=1;fontSize=15;fillColor=#dae8fc;strokeColor=#6c8ebf;" vertex="1" parent="Gjbpmm7I058mngas0lJp-1">
          <mxGeometry x="-2600" y="40" width="160" height="40" as="geometry" />
        </mxCell>
        <mxCell id="mrHgx6ij_YpXuuBXTZkh-28" value="Instr 3" style="rounded=1;whiteSpace=wrap;html=1;fontSize=15;fillColor=#dae8fc;strokeColor=#6c8ebf;" vertex="1" parent="Gjbpmm7I058mngas0lJp-1">
          <mxGeometry x="-2600" y="200" width="160" height="40" as="geometry" />
        </mxCell>
        <mxCell id="mrHgx6ij_YpXuuBXTZkh-29" value="Instr 4" style="rounded=1;whiteSpace=wrap;html=1;fontSize=15;fillColor=#dae8fc;strokeColor=#6c8ebf;" vertex="1" parent="Gjbpmm7I058mngas0lJp-1">
          <mxGeometry x="-2600" y="360" width="160" height="40" as="geometry" />
        </mxCell>
        <mxCell id="mrHgx6ij_YpXuuBXTZkh-30" value="Val 6" style="ellipse;whiteSpace=wrap;html=1;fontSize=15;fillColor=#f5f5f5;strokeColor=#666666;fontColor=#333333;" vertex="1" parent="Gjbpmm7I058mngas0lJp-1">
          <mxGeometry x="-2560" y="100" width="80" height="40" as="geometry" />
        </mxCell>
        <mxCell id="mrHgx6ij_YpXuuBXTZkh-31" value="Val 7" style="ellipse;whiteSpace=wrap;html=1;fontSize=15;fillColor=#f5f5f5;strokeColor=#666666;fontColor=#333333;" vertex="1" parent="Gjbpmm7I058mngas0lJp-1">
          <mxGeometry x="-2560" y="260" width="80" height="40" as="geometry" />
        </mxCell>
        <mxCell id="mrHgx6ij_YpXuuBXTZkh-32" value="" style="endArrow=blockThin;html=1;fontSize=15;edgeStyle=orthogonalEdgeStyle;elbow=vertical;endFill=1;entryX=0.5;entryY=0;entryDx=0;entryDy=0;" edge="1" parent="Gjbpmm7I058mngas0lJp-1" source="mrHgx6ij_YpXuuBXTZkh-25" target="mrHgx6ij_YpXuuBXTZkh-26">
          <mxGeometry width="50" height="50" relative="1" as="geometry">
            <mxPoint x="-2630" y="-80" as="sourcePoint" />
            <mxPoint x="-2590" y="170" as="targetPoint" />
            <Array as="points">
              <mxPoint x="-2520" y="-140" />
              <mxPoint x="-2800" y="-140" />
            </Array>
          </mxGeometry>
        </mxCell>
        <mxCell id="mrHgx6ij_YpXuuBXTZkh-33" value="" style="endArrow=blockThin;html=1;fontSize=15;edgeStyle=orthogonalEdgeStyle;elbow=vertical;endFill=1;exitX=0.5;exitY=1;exitDx=0;exitDy=0;entryX=0.25;entryY=0;entryDx=0;entryDy=0;" edge="1" parent="Gjbpmm7I058mngas0lJp-1" source="mrHgx6ij_YpXuuBXTZkh-50" target="mrHgx6ij_YpXuuBXTZkh-29">
          <mxGeometry width="50" height="50" relative="1" as="geometry">
            <mxPoint x="-2750" y="90" as="sourcePoint" />
            <mxPoint x="-2930" y="-30" as="targetPoint" />
            <Array as="points">
              <mxPoint x="-2720" y="340" />
              <mxPoint x="-2560" y="340" />
            </Array>
          </mxGeometry>
        </mxCell>
        <mxCell id="mrHgx6ij_YpXuuBXTZkh-34" value="" style="endArrow=blockThin;html=1;fontSize=15;edgeStyle=orthogonalEdgeStyle;elbow=vertical;endFill=1;" edge="1" parent="Gjbpmm7I058mngas0lJp-1" source="mrHgx6ij_YpXuuBXTZkh-28" target="mrHgx6ij_YpXuuBXTZkh-31">
          <mxGeometry width="50" height="50" relative="1" as="geometry">
            <mxPoint x="-2490" y="270" as="sourcePoint" />
            <mxPoint x="-2920" y="-20" as="targetPoint" />
            <Array as="points">
              <mxPoint x="-2520" y="260" />
              <mxPoint x="-2520" y="260" />
            </Array>
          </mxGeometry>
        </mxCell>
        <mxCell id="mrHgx6ij_YpXuuBXTZkh-35" value="" style="endArrow=blockThin;html=1;fontSize=15;entryX=0.5;entryY=0;entryDx=0;entryDy=0;edgeStyle=orthogonalEdgeStyle;elbow=vertical;endFill=1;" edge="1" parent="Gjbpmm7I058mngas0lJp-1" source="mrHgx6ij_YpXuuBXTZkh-30" target="mrHgx6ij_YpXuuBXTZkh-28">
          <mxGeometry width="50" height="50" relative="1" as="geometry">
            <mxPoint x="-2790" y="210" as="sourcePoint" />
            <mxPoint x="-2660" y="270" as="targetPoint" />
            <Array as="points" />
          </mxGeometry>
        </mxCell>
        <mxCell id="mrHgx6ij_YpXuuBXTZkh-36" value="" style="endArrow=blockThin;html=1;fontSize=15;edgeStyle=orthogonalEdgeStyle;elbow=vertical;rounded=1;strokeWidth=1;arcSize=20;endFill=1;exitX=0.5;exitY=1;exitDx=0;exitDy=0;entryX=0.25;entryY=0;entryDx=0;entryDy=0;" edge="1" parent="Gjbpmm7I058mngas0lJp-1" source="mrHgx6ij_YpXuuBXTZkh-51" target="mrHgx6ij_YpXuuBXTZkh-28">
          <mxGeometry width="50" height="50" relative="1" as="geometry">
            <mxPoint x="-2950" y="50" as="sourcePoint" />
            <mxPoint x="-2330" y="200" as="targetPoint" />
            <Array as="points">
              <mxPoint x="-2640" y="180" />
              <mxPoint x="-2560" y="180" />
            </Array>
          </mxGeometry>
        </mxCell>
        <mxCell id="mrHgx6ij_YpXuuBXTZkh-37" value="" style="endArrow=blockThin;html=1;fontSize=15;edgeStyle=orthogonalEdgeStyle;elbow=vertical;entryX=0.5;entryY=0;entryDx=0;entryDy=0;endFill=1;" edge="1" parent="Gjbpmm7I058mngas0lJp-1" source="mrHgx6ij_YpXuuBXTZkh-27" target="mrHgx6ij_YpXuuBXTZkh-30">
          <mxGeometry width="50" height="50" relative="1" as="geometry">
            <mxPoint x="-2510" y="100" as="sourcePoint" />
            <mxPoint x="-2850" y="180" as="targetPoint" />
            <Array as="points">
              <mxPoint x="-2520" y="90" />
              <mxPoint x="-2520" y="90" />
            </Array>
          </mxGeometry>
        </mxCell>
        <mxCell id="mrHgx6ij_YpXuuBXTZkh-38" value="" style="endArrow=blockThin;html=1;fontSize=15;entryX=0.5;entryY=0;entryDx=0;entryDy=0;edgeStyle=orthogonalEdgeStyle;elbow=vertical;endFill=1;" edge="1" parent="Gjbpmm7I058mngas0lJp-1" source="mrHgx6ij_YpXuuBXTZkh-31" target="mrHgx6ij_YpXuuBXTZkh-29">
          <mxGeometry width="50" height="50" relative="1" as="geometry">
            <mxPoint x="-2760" y="340" as="sourcePoint" />
            <mxPoint x="-2920" y="20" as="targetPoint" />
            <Array as="points" />
          </mxGeometry>
        </mxCell>
        <mxCell id="mrHgx6ij_YpXuuBXTZkh-39" value="" style="endArrow=blockThin;html=1;strokeWidth=1;fontSize=15;dashed=1;endFill=1;edgeStyle=orthogonalEdgeStyle;fillColor=#f5f5f5;strokeColor=#666666;" edge="1" parent="Gjbpmm7I058mngas0lJp-1" source="mrHgx6ij_YpXuuBXTZkh-25" target="mrHgx6ij_YpXuuBXTZkh-27">
          <mxGeometry width="50" height="50" relative="1" as="geometry">
            <mxPoint x="-2860" y="100" as="sourcePoint" />
            <mxPoint x="-2810" y="50" as="targetPoint" />
            <Array as="points">
              <mxPoint x="-2460" y="20" />
              <mxPoint x="-2460" y="20" />
            </Array>
          </mxGeometry>
        </mxCell>
        <mxCell id="mrHgx6ij_YpXuuBXTZkh-40" value="" style="endArrow=blockThin;html=1;strokeWidth=1;fontSize=15;dashed=1;endFill=1;edgeStyle=orthogonalEdgeStyle;fillColor=#f5f5f5;strokeColor=#666666;" edge="1" parent="Gjbpmm7I058mngas0lJp-1" source="mrHgx6ij_YpXuuBXTZkh-28" target="mrHgx6ij_YpXuuBXTZkh-29">
          <mxGeometry width="50" height="50" relative="1" as="geometry">
            <mxPoint x="-2370.0014285714287" y="-10" as="sourcePoint" />
            <mxPoint x="-2370.0014285714287" y="110" as="targetPoint" />
            <Array as="points">
              <mxPoint x="-2460" y="260" />
              <mxPoint x="-2460" y="260" />
            </Array>
          </mxGeometry>
        </mxCell>
        <mxCell id="mrHgx6ij_YpXuuBXTZkh-41" value="" style="endArrow=blockThin;html=1;strokeWidth=1;fontSize=15;dashed=1;endFill=1;edgeStyle=orthogonalEdgeStyle;fillColor=#f5f5f5;strokeColor=#666666;" edge="1" parent="Gjbpmm7I058mngas0lJp-1" source="mrHgx6ij_YpXuuBXTZkh-27" target="mrHgx6ij_YpXuuBXTZkh-28">
          <mxGeometry width="50" height="50" relative="1" as="geometry">
            <mxPoint x="-2429.9714285714285" y="-50" as="sourcePoint" />
            <mxPoint x="-2429.9714285714285" y="70" as="targetPoint" />
            <Array as="points">
              <mxPoint x="-2460" y="110" />
              <mxPoint x="-2460" y="110" />
            </Array>
          </mxGeometry>
        </mxCell>
        <mxCell id="mrHgx6ij_YpXuuBXTZkh-42" value="return" style="rounded=0;whiteSpace=wrap;html=1;fontFamily=Helvetica;fontSize=15;fontColor=#000000;align=center;strokeColor=#9673a6;fillColor=#e1d5e7;" vertex="1" parent="Gjbpmm7I058mngas0lJp-1">
          <mxGeometry x="-2440" y="680" width="160" height="40" as="geometry" />
        </mxCell>
        <mxCell id="mrHgx6ij_YpXuuBXTZkh-43" value="" style="endArrow=blockThin;html=1;fontSize=15;edgeStyle=orthogonalEdgeStyle;elbow=vertical;endFill=1;entryX=0.25;entryY=0;entryDx=0;entryDy=0;exitX=0.5;exitY=1;exitDx=0;exitDy=0;" edge="1" parent="Gjbpmm7I058mngas0lJp-1" source="mrHgx6ij_YpXuuBXTZkh-26" target="mrHgx6ij_YpXuuBXTZkh-42">
          <mxGeometry width="50" height="50" relative="1" as="geometry">
            <mxPoint x="-2669.97" y="200" as="sourcePoint" />
            <mxPoint x="-2529.9700000000003" y="370" as="targetPoint" />
            <Array as="points">
              <mxPoint x="-2800" y="660" />
              <mxPoint x="-2400" y="660" />
            </Array>
          </mxGeometry>
        </mxCell>
        <mxCell id="mrHgx6ij_YpXuuBXTZkh-44" value="" style="endArrow=blockThin;html=1;fontSize=15;edgeStyle=orthogonalEdgeStyle;elbow=vertical;endFill=1;entryX=0.75;entryY=0;entryDx=0;entryDy=0;exitX=0.5;exitY=1;exitDx=0;exitDy=0;" edge="1" parent="Gjbpmm7I058mngas0lJp-1" source="mrHgx6ij_YpXuuBXTZkh-30" target="mrHgx6ij_YpXuuBXTZkh-42">
          <mxGeometry width="50" height="50" relative="1" as="geometry">
            <mxPoint x="-2669.9700000000003" y="200" as="sourcePoint" />
            <mxPoint x="-2670" y="550" as="targetPoint" />
            <Array as="points">
              <mxPoint x="-2520" y="160" />
              <mxPoint x="-2320" y="160" />
            </Array>
          </mxGeometry>
        </mxCell>
        <mxCell id="mrHgx6ij_YpXuuBXTZkh-45" value="Val 5" style="ellipse;whiteSpace=wrap;html=1;fontSize=15;fillColor=#f5f5f5;strokeColor=#666666;fontColor=#333333;" vertex="1" parent="Gjbpmm7I058mngas0lJp-1">
          <mxGeometry x="-2560" y="420" width="80" height="40" as="geometry" />
        </mxCell>
        <mxCell id="mrHgx6ij_YpXuuBXTZkh-46" value="" style="endArrow=blockThin;html=1;fontSize=15;edgeStyle=orthogonalEdgeStyle;elbow=vertical;endFill=1;exitX=0.5;exitY=1;exitDx=0;exitDy=0;entryX=0.5;entryY=0;entryDx=0;entryDy=0;" edge="1" parent="Gjbpmm7I058mngas0lJp-1" source="mrHgx6ij_YpXuuBXTZkh-29" target="mrHgx6ij_YpXuuBXTZkh-45">
          <mxGeometry width="50" height="50" relative="1" as="geometry">
            <mxPoint x="-2669.9700000000003" y="200" as="sourcePoint" />
            <mxPoint x="-2529.9414285714283" y="370" as="targetPoint" />
          </mxGeometry>
        </mxCell>
        <mxCell id="mrHgx6ij_YpXuuBXTZkh-47" value="" style="endArrow=blockThin;html=1;fontSize=15;edgeStyle=orthogonalEdgeStyle;elbow=vertical;endFill=1;exitX=0.5;exitY=1;exitDx=0;exitDy=0;entryX=0.5;entryY=0;entryDx=0;entryDy=0;" edge="1" parent="Gjbpmm7I058mngas0lJp-1" source="mrHgx6ij_YpXuuBXTZkh-45" target="mrHgx6ij_YpXuuBXTZkh-48">
          <mxGeometry width="50" height="50" relative="1" as="geometry">
            <mxPoint x="-2510" y="410" as="sourcePoint" />
            <mxPoint x="-2449.9700000000003" y="480" as="targetPoint" />
          </mxGeometry>
        </mxCell>
        <mxCell id="mrHgx6ij_YpXuuBXTZkh-48" value="&lt;font style=&quot;font-size: 15px;&quot;&gt;WRITE_STCK_F&lt;/font&gt;" style="rounded=1;whiteSpace=wrap;html=1;fontSize=15;fillColor=#dae8fc;strokeColor=#6c8ebf;" vertex="1" parent="Gjbpmm7I058mngas0lJp-1">
          <mxGeometry x="-2600" y="520" width="160" height="40" as="geometry" />
        </mxCell>
        <mxCell id="mrHgx6ij_YpXuuBXTZkh-49" value="" style="endArrow=blockThin;html=1;fontSize=15;edgeStyle=orthogonalEdgeStyle;elbow=vertical;endFill=1;exitX=1;exitY=0.5;exitDx=0;exitDy=0;" edge="1" parent="Gjbpmm7I058mngas0lJp-1" source="mrHgx6ij_YpXuuBXTZkh-48" target="mrHgx6ij_YpXuuBXTZkh-42">
          <mxGeometry width="50" height="50" relative="1" as="geometry">
            <mxPoint x="-2510" y="470" as="sourcePoint" />
            <mxPoint x="-2510" y="530" as="targetPoint" />
          </mxGeometry>
        </mxCell>
        <mxCell id="mrHgx6ij_YpXuuBXTZkh-50" value="Val 4" style="ellipse;whiteSpace=wrap;html=1;fontSize=15;fillColor=#f5f5f5;strokeColor=#666666;fontColor=#333333;" vertex="1" parent="Gjbpmm7I058mngas0lJp-1">
          <mxGeometry x="-2760" y="-120" width="80" height="40" as="geometry" />
        </mxCell>
        <mxCell id="mrHgx6ij_YpXuuBXTZkh-51" value="Val 2" style="ellipse;whiteSpace=wrap;html=1;fontSize=15;fillColor=#f5f5f5;strokeColor=#666666;fontColor=#333333;" vertex="1" parent="Gjbpmm7I058mngas0lJp-1">
          <mxGeometry x="-2680" y="-120" width="80" height="40" as="geometry" />
        </mxCell>
        <mxCell id="mrHgx6ij_YpXuuBXTZkh-52" value="" style="endArrow=blockThin;html=1;fontSize=15;edgeStyle=orthogonalEdgeStyle;elbow=vertical;endFill=1;exitX=0.5;exitY=1;exitDx=0;exitDy=0;entryX=0.25;entryY=0;entryDx=0;entryDy=0;" edge="1" parent="Gjbpmm7I058mngas0lJp-1" source="mrHgx6ij_YpXuuBXTZkh-51" target="mrHgx6ij_YpXuuBXTZkh-27">
          <mxGeometry width="50" height="50" relative="1" as="geometry">
            <mxPoint x="-2800" y="-40.00000000000023" as="sourcePoint" />
            <mxPoint x="-2680" y="399.9999999999998" as="targetPoint" />
            <Array as="points">
              <mxPoint x="-2640" y="20" />
              <mxPoint x="-2560" y="20" />
            </Array>
          </mxGeometry>
        </mxCell>
        <mxCell id="mrHgx6ij_YpXuuBXTZkh-53" value="Val 1" style="ellipse;whiteSpace=wrap;html=1;fontSize=15;fillColor=#f5f5f5;strokeColor=#666666;fontColor=#333333;" vertex="1" parent="Gjbpmm7I058mngas0lJp-1">
          <mxGeometry x="-2560" y="-280" width="80" height="40" as="geometry" />
        </mxCell>
        <mxCell id="mrHgx6ij_YpXuuBXTZkh-54" value="" style="endArrow=blockThin;html=1;fontSize=15;edgeStyle=orthogonalEdgeStyle;elbow=vertical;endFill=1;entryX=0.5;entryY=0;entryDx=0;entryDy=0;exitX=0.5;exitY=1;exitDx=0;exitDy=0;" edge="1" parent="Gjbpmm7I058mngas0lJp-1" source="mrHgx6ij_YpXuuBXTZkh-53" target="mrHgx6ij_YpXuuBXTZkh-25">
          <mxGeometry width="50" height="50" relative="1" as="geometry">
            <mxPoint x="-2509.9411764705883" y="-150.00000000000023" as="sourcePoint" />
            <mxPoint x="-2910" y="-110.00000000000023" as="targetPoint" />
          </mxGeometry>
        </mxCell>
        <mxCell id="mrHgx6ij_YpXuuBXTZkh-56" value="Val 3" style="ellipse;whiteSpace=wrap;html=1;fontSize=15;fillColor=#f5f5f5;strokeColor=#666666;fontColor=#333333;" vertex="1" parent="Gjbpmm7I058mngas0lJp-1">
          <mxGeometry x="-2600" y="-120" width="80" height="40" as="geometry" />
        </mxCell>
        <mxCell id="mrHgx6ij_YpXuuBXTZkh-57" value="" style="endArrow=blockThin;html=1;fontSize=15;elbow=vertical;rounded=1;strokeWidth=1;arcSize=20;endFill=1;startArrow=oval;startFill=0;entryX=0;entryY=0.5;entryDx=0;entryDy=0;" edge="1" parent="Gjbpmm7I058mngas0lJp-1" source="Gjbpmm7I058mngas0lJp-64" target="Gjbpmm7I058mngas0lJp-85">
          <mxGeometry width="50" height="50" relative="1" as="geometry">
            <mxPoint x="-1130.6764705882351" y="-50.00000000000023" as="sourcePoint" />
            <mxPoint x="-710" y="-50.00000000000023" as="targetPoint" />
          </mxGeometry>
        </mxCell>
        <mxCell id="mrHgx6ij_YpXuuBXTZkh-58" value="" style="endArrow=blockThin;html=1;fontSize=15;elbow=vertical;rounded=1;strokeWidth=1;arcSize=20;endFill=1;startArrow=oval;startFill=0;entryX=0;entryY=0.5;entryDx=0;entryDy=0;" edge="1" parent="Gjbpmm7I058mngas0lJp-1" source="Gjbpmm7I058mngas0lJp-139" target="Gjbpmm7I058mngas0lJp-152">
          <mxGeometry width="50" height="50" relative="1" as="geometry">
            <mxPoint x="-1120.6764705882351" y="-40.00000000000023" as="sourcePoint" />
            <mxPoint x="-700" y="-40.00000000000023" as="targetPoint" />
          </mxGeometry>
        </mxCell>
      </root>
    </mxGraphModel>
  </diagram>
</mxfile>
